<?xml version="1.0" encoding="UTF-8"?>
<!-- Created with Inkscape by VulcanSphere (https://www.inkscape.org/ and https://vulcansphere.com) -->
<svg id="svg1" width="492.25" height="289.77" version="1.1" viewBox="0 0 492.25 289.77" xml:space="preserve" xmlns="http://www.w3.org/2000/svg"><title id="title1">Solo Leveling (English web novel and webtoon)</title><desc id="desc1">Fantasy web novel by Chugong, this logo is used for the English version of the web novel and webtoon</desc><g id="g1" transform="translate(1.5946 364.84)"><path id="path1" d="m471.85-77.701s-1.7533 0.32495-3.1156 1.018c-0.30562 0.15547-0.82798 0.28266-1.1608 0.28266s-0.78443 0.216-1.0035 0.48-0.58132 0.48-0.80494 0.48l-29.915 0.3694c0-0.43575-1.126-1.3296-1.675-1.3296-0.92526 0-3.1977-1.4295-3.4886-2.1946-0.23017-0.6054-0.37666-0.68063-0.73926-0.3797-0.36149 0.30001-0.69476 0.14651-1.6614-0.76522-0.66504-0.62728-1.3183-1.1405-1.4517-1.1405-0.51922 0-2.8242-2.4051-2.8242-2.9468 0-0.31524-0.144-0.57316-0.32-0.57316-0.43655 0-0.41632-5.5357 0.0218-5.9738 0.18801-0.188 0.29601-0.9008 0.24-1.584l2.1841-5.182s2.255 0.0517 4.9613-2.6985c1.1699-1.1889 2.3579-2.1617 2.64-2.1617 0.57324 0 0.68822-0.49384 0.1871-0.80355-0.18857-0.11654 0.14833-0.75515 0.8-1.5165 1.3224-1.5449 1.3637-1.7626 0.40573-2.138-1.531-0.60002-6-5.483-6-6.5558 0-1.2225 1.6918-5.4863 2.5769-6.4943 0.51873-0.5908 0.94314-1.2036 0.94314-1.3619 0-0.52256 3.3864-3.3454 3.6453-3.6734 0.0347-0.044 0.35429-0.46049 0.25708-0.36392-0.0534 0.053 0.0405-0.19592 1.6845-1.8933 0.97524-1.0069 1.7732-1.9537 1.7732-2.104 0-0.40942-2.9703-3.1755-3.41-3.1755-0.53328 0-4.59-4.1317-4.59-4.6748 0-0.24484-0.144-0.44516-0.32-0.44516s-0.32-0.27951-0.32-0.62112-0.144-0.71011-0.32-0.81888c-0.176-0.10878-0.32-0.47728-0.32-0.81889s-0.12839-0.62111-0.28531-0.62111-0.37566-0.36-0.48609-0.8c-0.11044-0.44-0.34205-0.8-0.51469-0.8-0.17265 0-0.31391-0.4032-0.31391-0.896s-0.15144-1.0474-0.33653-1.2325c-0.21874-0.21874-0.28581-2.0053-0.19161-5.104 0.16023-5.271 0.41305-7.4052 0.96281-8.1275 0.66292-0.87099 1.1653-1.9038 1.1653-2.3957 0-0.26639 0.1276-0.48434 0.28354-0.48434 0.15595 0 0.50923-0.4756 0.78507-1.0569s0.79624-1.3236 1.1565-1.6496c0.36021-0.32599 0.65493-0.78062 0.65493-1.0103 0-0.47682 2.9952-3.3788 3.8058-3.6874 0.29503-0.11231 0.72658-0.43332 0.95899-0.71336 0.49049-0.59101 2.1768-1.4824 2.8044-1.4824 0.23696 0 0.43083-0.1276 0.43083-0.28354 0-0.15595 0.49789-0.5198 1.1064-0.80857 0.60852-0.28876 1.193-0.66517 1.2989-0.83646 0.10586-0.17129 0.61598-0.31143 1.1336-0.31143s0.94111-0.144 0.94111-0.32 0.78351-0.32 1.7411-0.32 1.8301-0.144 1.9389-0.32c0.11708-0.18943 2.0833-0.32 4.8189-0.32 4.4078 0 4.6211 0.0295 4.6211 0.64 0 0.41863-0.21333 0.64-0.61677 0.64-0.33923 0-0.89995 0.36-1.2461 0.8-0.3461 0.44-0.85205 0.8-1.1243 0.8-0.27228 0-0.58405 0.144-0.69283 0.32-0.11235 0.18178-1.71 0.32-3.6989 0.32-2.1207 0-3.5011 0.12616-3.5011 0.32 0 0.176-0.2629 0.32-0.58422 0.32s-0.92242 0.36-1.3358 0.8c-0.41335 0.44-0.91323 0.8-1.1108 0.8-0.45604 0-2.7292 2.3107-2.7292 2.7743 0 0.19103-0.216 0.52659-0.48 0.74569s-0.48 0.80423-0.48 1.3003c0 0.49607-0.144 0.99093-0.32 1.0997-0.176 0.10877-0.32 1.0245-0.32 2.0349s-0.15059 1.9877-0.33466 2.1718c-0.61117 0.61117 0.0147 15.245 0.68163 15.937 0.16117 0.1672 0.29303 0.58973 0.29303 0.93896 0 0.7913 1.1532 3.2134 1.776 3.7303 0.2552 0.2118 0.46399 0.55479 0.46399 0.76222 0 0.6142 4.3024 4.713 5.6197 5.3537 0.66801 0.32493 1.7668 0.59078 2.4418 0.59078 0.67496 0 1.5132 0.17863 1.8629 0.39697 0.50594 0.31597 0.76537 0.31597 1.2713 0 0.34961-0.21834 1.2856-0.39697 2.08-0.39697s1.4443-0.144 1.4443-0.32 0.31249-0.32 0.69441-0.32c1.0374 0 4.4195-2.2864 4.4228-2.99 2e-3 -0.32448 0.29238-0.66569 0.6463-0.75824 0.35393-0.0926 0.72954-0.51107 0.83469-0.93004 0.10516-0.41897 0.31958-0.76176 0.4765-0.76176s0.28531-0.432 0.28531-0.96 0.13342-0.96 0.29649-0.96 0.35724-1.188 0.4315-2.64c0.0743-1.452 0.29847-3.5994 0.49825-4.772 0.26513-1.5562 0.26985-2.7662 0.0175-4.48-0.19017-1.2914-0.41745-3.5-0.50508-4.908-0.0876-1.408-0.28966-2.6968-0.44898-2.864s-0.28967-0.7792-0.28967-1.36-0.144-1.056-0.32-1.056-0.32-0.27755-0.32-0.61678c0-0.33922-0.36389-0.90301-0.80865-1.2529-0.80845-0.63593-0.80851-0.63637-0.22331-1.6839 0.32195-0.57629 1.1479-1.3627 1.8355-1.7477s1.3041-0.86164 1.37-1.0594 0.32985-0.35947 0.58654-0.35947 0.73746-0.252 1.0684-0.56c0.33091-0.308 1.4142-0.98483 2.4073-1.5041 1.5064-0.78756 1.9076-0.88039 2.4206-0.56 0.33823 0.21123 0.88729 0.38406 1.2201 0.38406s0.78442 0.216 1.0035 0.48 0.81274 0.48 1.3192 0.48 0.92081 0.144 0.92081 0.32 0.4032 0.32 0.896 0.32 1.0361 0.14007 1.2073 0.31127 2.5043 0.3512 5.1848 0.4c2.8604 0.0521 4.9062 0.2191 4.9527 0.40434 0.0436 0.17359-0.20877 0.36102-0.56077 0.4165-0.352 0.0555-0.964 0.23745-1.36 0.40438s-1.116 0.46431-1.6 0.66084c-0.484 0.19654-1.13 0.48454-1.4356 0.64-0.30562 0.15547-0.97198 0.28267-1.4808 0.28267s-1.1044 0.216-1.3235 0.48c-0.22683 0.27331-0.92452 0.48-1.6203 0.48-0.67207 0-1.3109 0.144-1.4197 0.32-0.10877 0.176-0.47727 0.32-0.81888 0.32-0.43479 0-0.62112 0.22079-0.62112 0.736 0 0.4048-0.16989 0.90589-0.37753 1.1135-0.28337 0.28337-0.28761 0.55872-0.017 1.104 0.66858 1.3471 1.3268 15.122 0.7501 15.699-0.19556 0.19557-0.35557 0.68678-0.35557 1.0916s-0.108 0.73691-0.24 0.73802c-0.27615 2e-3 -1.36 1.8172-1.36 2.2773 0 0.1691-0.288 0.61658-0.64 0.99441-0.352 0.37782-0.64 1.0818-0.64 1.5644 0 0.66627-0.17325 0.90201-0.72 0.97966-0.4627 0.0657-0.75654 0.35955-0.82225 0.82226-0.11462 0.80706-0.3868 0.90294-0.95375 0.336-0.26682-0.26683-0.384-0.27497-0.384-0.0267 0 0.19653 0.17388 0.41529 0.38639 0.48613 0.25677 0.0856 0.15255 0.37977-0.31072 0.87704-0.61081 0.65563-0.72228 0.68259-0.90062 0.21787-0.29477-0.76816-0.77497-0.65073-0.77549 0.18963-3.2e-4 0.52411-0.52256 1.0682-1.9196 2-1.0555 0.704-1.9193 1.388-1.9196 1.52-2.4e-4 0.132-0.35194 0.24-0.78155 0.24s-0.87011 0.144-0.97889 0.32c-0.10877 0.176-0.45964 0.32-0.7797 0.32s-0.7612 0.216-0.9803 0.48c-0.22683 0.27331-0.92452 0.48-1.6203 0.48-0.67207 0-1.3109 0.144-1.4197 0.32-0.12055 0.19505-2.557 0.32-6.24 0.32-3.683 0-6.1194-0.12495-6.24-0.32-0.10877-0.176-1.2608-0.32-2.56-0.32-1.2992 0-2.4512 0.144-2.56 0.32-0.10877 0.176-0.41457 0.32-0.67954 0.32-0.46849 0-2.2005 1.7987-2.2005 2.2853 0 0.13351-0.18 0.42274-0.4 0.64274s-0.4 0.6592-0.4 0.976-0.144 0.576-0.32 0.576-0.32 0.4752-0.32 1.056-0.1728 1.2288-0.384 1.44c-0.29866 0.29866-0.29866 0.46933 0 0.768 0.2112 0.2112 0.384 0.6981 0.384 1.082 0 0.69533 1.26 1.8364 2.88 2.6081 1.2822 0.61079 10.691 1.2011 24.71 1.5504 6.4477 0.16063 8.3097 0.30143 8.5992 0.65028 0.20325 0.2449 0.84741 0.44527 1.4315 0.44527s1.1509 0.144 1.2597 0.32c0.10878 0.176 0.41156 0.32 0.67285 0.32 0.2613 0 0.86333 0.36 1.3378 0.8s1.0322 0.8 1.2394 0.8c0.20713 0 0.4246 0.1288 0.48327 0.28623 0.0587 0.15743 0.61066 0.56502 1.2267 0.90574s1.28 0.93731 1.4755 1.3258c0.19552 0.38844 0.64948 1.0249 1.0088 1.4143 1.7679 1.9159 1.9957 2.8176 1.9957 7.8988 0 2.8357-0.12981 4.8516-0.32 4.9692-0.176 0.10877-0.32 0.46725-0.32 0.79662 0 0.37741-0.26625 0.63668-0.72 0.70112-0.53011 0.0753-0.74839 0.35186-0.82767 1.0487-0.0592 0.52055-0.38321 1.1854-0.72 1.4775-0.33678 0.29209-0.61233 0.67772-0.61233 0.85696 0 1.1952-2.393 3.7251-2.97 4.3854l-1.0333 1.1825c-0.44955 0.51445-1.0954 1.1993-1.2706 1.1535zm-6.0797-4.3013c1.232-0.10059 2.528-0.30824 2.88-0.46146 0.352-0.15321 0.928-0.37418 1.28-0.49105 0.55731-0.18501 5.7058-2.6364 5.6557-2.6397 0 0 1.0214-0.15084 1.2694-0.28893 0 0 0.49251-0.54204 0.40981-0.55372-0.50725-0.07161 0.75102-0.15124 2.237-1.6021 0.98343-0.96013 1.788-1.9491 1.788-2.1976 0-0.24856 0.36-0.79014 0.8-1.2035 0.44036-0.4137 0.8-1.1119 0.8-1.5531 0-0.44082 0.17503-1.2855 0.38894-1.8771 0.30525-0.84416 0.30525-1.2096 0-1.6984-0.21391-0.34254-0.38894-1.0072-0.38894-1.4769 0-1.1191-1.348-2.8573-2.6476-3.4139-2.2119-0.94744-3.4199-1.1806-6.1162-1.1806-1.6443 0-3.0866-0.16424-3.4973-0.39825-0.78069-0.4448-6.5411-0.79823-17.419-1.0687-4.0562-0.10086-7.12-0.30527-7.12-0.47504 0-0.1639-1.2806-0.298-2.8458-0.298-2.3246 0-2.8821-0.0947-3.0441-0.5169-0.15701-0.40916-0.53096-0.17362-1.7942 1.1302-0.87774 0.90588-1.5959 1.7641-1.5959 1.9071s-0.35982 0.67845-0.79961 1.1898c-0.70707 0.82218-0.94084 1.4005-0.84851 2.0991 0.0152 0.11512-0.18373 0.38476-0.44211 0.59919-0.25837 0.21443-0.46977 0.66024-0.46977 0.99069s-0.15312 0.60082-0.34027 0.60082c-0.19114 0 0.1759 1.1548-0.40852 1.2085-0.0765 7e-3 -3.3684 8.0524 1.2845 11.143 4.4645 2.9655 15.612 2.1908 20.814 2.1691 3.3922-0.01416 1.1995 0.35734 10.17 0.35734zm-255.84-8.3742c0-0.74344-0.7703-2.5811-2.836-6.7655-0.28823-0.58387-0.77605-1.3338-1.084-1.6666s-0.56-0.81214-0.56-1.0653c0-0.25313-0.504-0.90275-1.12-1.4436-0.616-0.54085-1.12-1.1712-1.12-1.4007 0-0.2295-1.152-1.5625-2.56-2.9623-1.408-1.3998-2.56-2.7001-2.56-2.8897 0-0.4579-1.8547-2.1498-2.96-2.7002-0.484-0.24102-0.88-0.55788-0.88-0.70414s-0.33788-0.26592-0.75084-0.26592c-0.94529 0-2.4882-0.75917-3.247-1.5976-0.31974-0.3533-0.84703-0.64237-1.1718-0.64237s-0.5904-0.144-0.5904-0.32-0.252-0.32249-0.56-0.32553c-0.308-3e-3 -0.89912-0.36304-1.3136-0.8s-0.94477-0.79447-1.1784-0.79447c-0.23366 0-0.51866-0.29559-0.63332-0.65685-0.16444-0.51812-0.30229-0.57899-0.65264-0.28822-0.34186 0.28371-0.56206 0.25074-0.95595-0.14316-0.28148-0.28147-0.65972-0.51177-0.84053-0.51177-0.18082 0-0.75309-0.45425-1.2717-1.0094-0.71275-0.763-1.0331-0.91924-1.3124-0.64-0.5351 0.53511-0.88143 0.45394-0.88143-0.20656 0-0.3168-0.1788-0.7548-0.39733-0.97333-0.31643-0.31643-0.30014-0.46472 0.08-0.72836 0.35957-0.24937 0.37865-0.37108 0.0773-0.49334-0.72935-0.29594-0.41432-0.74897 0.52081-0.74897 0.50645 0 1.1001-0.216 1.3192-0.48s0.59673-0.48 0.83918-0.48 0.44082-0.1909 0.44082-0.42422c0-0.53386 1.3412-1.8158 1.8998-1.8158 0.3297 0 0.33666-0.0987 0.0328-0.46484-0.30932-0.37271-0.25121-0.60927 0.29321-1.1936 0.95776-1.028 1.1168-1.9897 0.52513-3.1757-0.28101-0.5633-0.51092-1.2946-0.51092-1.625s-0.252-0.6963-0.56-0.81293c-0.88281-0.33429-1.3528-0.93202-1.5643-1.9893-0.15204-0.76021-0.36448-0.97857-0.95205-0.97857-0.84673 0-2.0437-0.88504-2.0437-1.5111 0-0.49096-0.52035-0.54138-0.80663-0.0782-0.19431 0.3144-1.4334-0.95085-1.4334-1.4637 0-0.42478-1.3696-1.4271-1.9501-1.4271-0.31468 0-0.66115-0.144-0.76992-0.32-0.10878-0.176-0.58528-0.32321-1.0589-0.32712-0.47361-4e-3 -1.2211-0.28871-1.6611-0.63288-0.44-0.34418-0.948-0.62897-1.1289-0.63289-0.45913-0.01-1.4311-1.1998-1.4311-1.7519 0-0.2516-0.144-0.54645-0.32-0.65522-0.4538-0.28047-0.39739-1.359 0.08-1.5295 0.22-0.0786 0.28417-0.2664 0.1426-0.4174s-0.37747-0.0803-0.52422 0.15719c-0.14676 0.23745-0.42928 0.33133-0.62783 0.20862-0.19854-0.12271-0.27423-0.36349-0.16819-0.53507s-0.0356-0.66056-0.31478-1.0866c-0.27917-0.42607-0.50758-1.1312-0.50758-1.567s-0.144-0.88137-0.32-0.99014c-0.176-0.10878-0.32-0.55123-0.32-0.98323s-0.13204-1.0355-0.29341-1.3411c-0.65043-1.2318-1.2957-4.262-1.6122-7.5712-0.42846-4.4793-0.43723-11.923-0.0144-12.184 0.176-0.10878 0.32458-0.72928 0.33017-1.3789 6e-3 -0.64961 0.2216-1.4606 0.48-1.8023 0.25841-0.34164 0.46983-0.94515 0.46983-1.3411s0.144-0.80895 0.32-0.91772c0.176-0.10878 0.32-0.54078 0.32-0.96 0-0.41923 0.144-0.85123 0.32-0.96 0.176-0.10878 0.32-0.48688 0.32-0.84024s0.36-1.1144 0.8-1.6913 0.8-1.2153 0.8-1.4186 0.144-0.36979 0.32-0.36979 0.32-0.21886 0.32-0.48636c0-0.61657 1.3048-2.6838 2.1985-3.4832 0.37483-0.33528 0.68151-0.87528 0.68151-1.2s0.13429-0.5904 0.29843-0.5904 0.40074-0.324 0.52578-0.72c0.12503-0.396 0.49474-0.95289 0.82156-1.2375 0.32683-0.28464 0.59423-0.75716 0.59423-1.05 0-0.63943 0.8772-1.0432 1.3151-0.60535 0.20274 0.20274 0.13915 0.45555-0.18151 0.72167-0.27146 0.22529-0.49356 0.5762-0.49356 0.7798 0 0.20359-0.288 0.57775-0.64 0.83146-0.352 0.2537-0.64 0.70899-0.64 1.0118s-0.13488 0.63384-0.29974 0.73572c-0.48592 0.30032-1.3003 2.1308-1.3003 2.9228 0 0.40257-0.144 0.82094-0.32 0.92972-0.176 0.10877-0.32 0.68477-0.32 1.28 0 0.59522-0.144 1.1712-0.32 1.28-0.176 0.10877-0.32 1.0798-0.32 2.1579s-0.23731 2.8059-0.52734 3.8395c-0.48979 1.7456-0.48979 2.0145 0 3.7762 0.29003 1.0432 0.52734 2.8984 0.52734 4.1227s0.144 2.3149 0.32 2.4237c0.176 0.10877 0.32 0.61277 0.32 1.12 0 0.50722 0.144 1.0112 0.32 1.12 0.176 0.10877 0.32 0.54077 0.32 0.96 0 0.41922 0.144 0.85122 0.32 0.96 0.176 0.10877 0.32 0.52175 0.32 0.91772s0.21142 0.99948 0.46982 1.3411c0.2584 0.34164 0.4744 0.87317 0.48 1.1812 6e-3 0.308 0.15418 0.56 0.33018 0.56s0.32 0.2795 0.32 0.62111 0.144 0.71011 0.32 0.81889c0.176 0.10877 0.32 0.46186 0.32 0.78465 0 0.32278 0.216 0.66976 0.48 0.77107 0.264 0.1013 0.48 0.47671 0.48 0.83423 0 0.35753 0.144 0.65005 0.32 0.65005s0.32 0.19387 0.32 0.43083c0 0.55026 0.90672 2.3785 1.3003 2.6217 0.16486 0.10189 0.29974 0.46475 0.29974 0.80636s0.12759 0.62112 0.28354 0.62112c0.15594 0 0.50594 0.468 0.77776 1.04 0.27183 0.572 0.93624 1.4629 1.4765 1.9799 0.54023 0.51692 0.98224 1.0836 0.98224 1.2594s0.30913 0.64857 0.68696 1.0508c0.53063 0.56482 0.60409 0.83111 0.32278 1.1701-0.42989 0.51799-0.17397 0.85994 0.64359 0.85994 0.32267 0 0.58667 0.15777 0.58667 0.3506s0.26911 0.73283 0.59801 1.2c0.32891 0.46717 0.70951 1.2094 0.84578 1.6494 0.30731 0.99229 1.338 1.92 2.1331 1.92 0.32988 0 0.72418 0.32936 0.8777 0.73315 0.15331 0.40323 0.50975 0.92486 0.79208 1.1592 0.28234 0.23432 0.51334 0.58233 0.51334 0.77336s0.53897 0.89928 1.1977 1.5739c0.99427 1.0182 1.1166 1.2791 0.72 1.5358-0.40251 0.26059-0.35178 0.40853 0.32229 0.93981 0.44 0.34679 0.9137 0.63373 1.0527 0.63764 0.50238 0.0141 2.6581 2.4748 2.523 2.88-0.0762 0.22846 0.0962 0.54668 0.38291 0.70716 0.28676 0.16048 0.52138 0.57262 0.52138 0.91588 0 0.41076 0.21877 0.6241 0.64 0.6241 0.352 0 0.64 0.19368 0.64 0.4304s0.26933 0.67414 0.5985 0.97204c0.51402 0.46518 0.7286 0.48403 1.52 0.1335 1.087-0.48143 1.6972-1.1657 1.7113-1.919 6e-3 -0.29869 0.37018-1.2201 0.81018-2.0477 0.44-0.82753 0.8-1.7626 0.8-2.078s0.144-0.66245 0.32-0.77122c0.176-0.10878 0.32-0.47728 0.32-0.81889s0.144-0.62111 0.32-0.62111 0.32-0.19954 0.32-0.44343c0-0.24388 0.21511-0.85588 0.47803-1.36 0.26291-0.50411 0.47891-1.1601 0.48-1.4577 1e-3 -0.29761 0.14597-0.63011 0.32197-0.73888 0.176-0.10878 0.32-0.52696 0.32-0.92929 0-0.40234 0.288-0.99216 0.64-1.3107 0.352-0.31856 0.64-0.75525 0.64-0.97042s0.216-0.57048 0.48-0.78958 0.48-0.65674 0.48-0.97252 0.18-0.64719 0.4-0.73646c0.30132-0.12226 0.28224-0.24397-0.0773-0.49334-0.38014-0.26364-0.39643-0.41193-0.08-0.72836 0.21853-0.21853 0.39733-0.65652 0.39733-0.97332s0.144-0.576 0.32-0.576 0.32458-0.252 0.33017-0.56c6e-3 -0.308 0.2216-0.83953 0.48-1.1812 0.25841-0.34163 0.46983-0.83635 0.46983-1.0994s0.32022-0.81908 0.71161-1.2357c0.60516-0.64416 0.64106-0.80371 0.24-1.0665-0.40493-0.26532-0.39045-0.35678 0.10241-0.6469 0.38456-0.22636 0.5075-0.54751 0.37247-0.97296-0.2079-0.65503 0.45536-2.3577 1.4985-3.8468 0.32725-0.46717 0.59501-1.1531 0.59501-1.5243 0-0.65606 0.42628-1.607 1.1593-2.5863 0.19762-0.264 0.46066-1.2 0.58453-2.08 0.12388-0.88 0.30047-2.1312 0.39244-2.7805 0.39623-2.7974-1.5991-4.7395-4.8694-4.7395-1.4998 0-1.7468-0.0856-1.7468-0.60499 0-0.43278 0.29604-0.65557 1.04-0.78267 4.1976-0.71711 5.2367-0.94374 5.504-1.2004 0.1672-0.16056 0.9147-0.29192 1.6611-0.29192s1.4461-0.144 1.5549-0.32c0.10877-0.176 0.54077-0.32 0.96-0.32 0.41922 0 0.85122-0.144 0.96-0.32 0.10877-0.176 0.60364-0.32 1.0997-0.32s1.0812-0.216 1.3003-0.48c0.22877-0.27565 0.92661-0.48 1.6392-0.48 0.68245 0 1.2408-0.144 1.2408-0.32s0.2795-0.32 0.62111-0.32 0.71011-0.144 0.81889-0.32c0.10877-0.176 0.60586-0.32 1.1046-0.32 0.52725 0 0.98724-0.20942 1.0988-0.50029 0.10559-0.27515 0.35251-0.40107 0.54871-0.2798 0.23073 0.1426 0.062 0.47373-0.47774 0.93751-0.45896 0.39437-0.83447 0.93395-0.83447 1.199 0 0.50493-2.6499 3.1235-3.1608 3.1235-0.16234 0-0.81355 0.5184-1.4472 1.152-0.79301 0.79301-1.152 1.4412-1.152 2.08 0 0.91563-0.41497 1.231-0.8 0.608-0.36299-0.58734-0.8-0.32936-0.8 0.47226 0 0.43575-0.28747 1.2638-0.63881 1.84-0.35134 0.57626-0.63934 1.3246-0.64 1.6629-2e-3 1.0754-1.087 3.0478-1.6812 3.0566-0.37454 6e-3 -0.56 0.26109-0.56 0.77168 0 0.41988-0.21512 1.1759-0.47803 1.68-0.26292 0.50412-0.47892 1.2321-0.48 1.6177-1e-3 0.38561-0.14597 0.79011-0.32197 0.89889-0.176 0.10877-0.32 0.39887-0.32 0.64467s-0.36 0.97739-0.8 1.6258-0.8 1.4468-0.8 1.7742-0.16164 0.59535-0.35919 0.59535c-0.24391 0-0.22785 0.15824 0.0501 0.49311 0.34451 0.41511 0.2374 0.67041-0.67712 1.614-0.89526 0.92367-1.003 1.1723-0.61274 1.4136 0.3772 0.23312 0.39274 0.37361 0.0763 0.69004-0.21853 0.21853-0.39732 0.71089-0.39732 1.0941s-0.216 0.87609-0.48 1.0952-0.48 0.73635-0.48 1.1494c0 0.41309-0.288 1.2638-0.64 1.8906-0.352 0.6267-0.64 1.3296-0.64 1.5621s-0.36 1.0997-0.8 1.9272c-0.44 0.82752-0.8 1.713-0.8 1.9677s-0.144 0.46307-0.32 0.46307-0.32 0.288-0.32 0.64-0.12133 0.64-0.26961 0.64c-0.14829 0-0.52948 0.54-0.84709 1.2s-0.70028 1.45-0.85039 1.7556c-0.1501 0.30562-0.27291 0.76162-0.27291 1.0133s-0.18 0.51825-0.4 0.5923c-0.31213 0.10505-0.30385 0.25111 0.0377 0.66486 0.37963 0.45991 0.33719 0.61234-0.32 1.1493-0.58436 0.47748-0.67128 0.70703-0.37999 1.0035 0.29101 0.29618 0.1992 0.66715-0.4 1.6164-0.42773 0.67757-0.77769 1.4508-0.77769 1.7183 0 0.26749-0.144 0.48636-0.32 0.48636s-0.32 0.4235-0.32 0.94111-0.144 1.0301-0.32 1.1389c-0.176 0.10877-0.32 0.68477-0.32 1.28 0 0.59522 0.144 1.1712 0.32 1.28 0.176 0.10877 0.32 0.53706 0.32 0.95176 0 0.42851 0.42086 1.1456 0.97495 1.6611 0.53622 0.49892 1.1982 1.4111 1.471 2.0271s0.75851 1.624 1.0792 2.24 1.1114 2.2 1.7569 3.52 1.3061 2.616 1.4678 2.88c0.16175 0.264 0.37823 0.696 0.48107 0.96s0.3104 0.768 0.46126 1.12c0.6387 1.4904 1.1688 9.6669 0.65967 10.176-0.19359 0.19359-0.35198 0.89919-0.35198 1.568 0 1.0027-0.11228 1.216-0.64 1.216-0.48053 0-0.64-0.21334-0.64-0.85613zm-202.53-15.582c-0.52716-0.63519-0.1574-1.3419 0.44188-0.84459 0.31042 0.25762 0.72138 0.17849 1.5812-0.30446 1.3329-0.74865 1.9862-0.8238 2.1957-0.25255 0.11733 0.32 0.23147 0.32 0.57067 0 0.2332-0.22 0.7912-0.40012 1.24-0.40027 0.82437-2.6e-4 3.6335-0.95061 4.0546-1.3717 0.12542-0.12542 0.49204-0.22804 0.81471-0.22804 0.32267 0 0.58667-0.144 0.58667-0.32s0.26568-0.32 0.5904-0.32c0.71367 0 1.6496-0.96748 1.6496-1.7052 0-0.29414 0.13724-0.5348 0.30499-0.5348 0.72479 0 1.2504-2.289 1.5065-6.56 0.34315-5.7244 0.32601-62.66-0.0209-69.44-0.16344-3.1943-0.42907-5.4695-0.70626-6.0492-0.24436-0.51104-0.4443-1.6905-0.4443-2.6211s-0.144-1.781-0.32-1.8897c-0.176-0.10878-0.32-0.69523-0.32-1.3032s-0.1272-1.3555-0.28266-1.6611c-0.15547-0.30561-0.47326-0.98765-0.7062-1.5156s-0.61596-1.1942-0.85115-1.4805c-0.36169-0.44022-0.34836-0.55087 0.08648-0.71774 0.6597-0.25315 0.30632-0.84179-0.50535-0.84179-0.40778 0-0.62112-0.21982-0.62112-0.64 0-0.352-0.12653-0.64-0.28118-0.64s-0.45015-0.40793-0.65667-0.90651c-0.20652-0.49858-1.232-1.7541-2.2788-2.79-1.0468-1.0359-1.9033-2.14-1.9033-2.4535 0-0.359-0.23985-0.57001-0.64792-0.57001-0.39667 0-0.76587-0.31022-0.95208-0.8-0.16729-0.44-0.47638-0.8-0.68688-0.8-0.62686 0-1.5233-0.98542-1.3373-1.4701 0.10179-0.26526-0.02747-0.44993-0.31491-0.44993-0.26816 0-0.54555 0.17395-0.61642 0.38656-0.08209 0.24627-0.468 0.0721-1.0634-0.48-0.514-0.47661-1.116-0.86656-1.3378-0.86656-0.2218 0-0.40327-0.1276-0.40327-0.28354 0-0.15595-0.49788-0.5198-1.1064-0.80856-0.60852-0.28877-1.193-0.66518-1.2989-0.83647-0.10586-0.17129-0.47198-0.31143-0.81359-0.31143s-0.62111-0.144-0.62111-0.32-0.3515-0.32-0.78112-0.32-0.87011-0.144-0.97888-0.32-0.54927-0.32-0.97889-0.32c-0.61986 0-0.78111-0.16516-0.78111-0.8 0-0.76909 0.07729-0.79961 2-0.78983 1.249 6e-3 2.2333 0.1866 2.6212 0.48 0.363 0.27456 1.3194 0.46983 2.3011 0.46983 0.92397 0 1.769 0.144 1.8777 0.32s0.64056 0.32 1.1818 0.32c0.54119 0 1.5767 0.15229 2.3011 0.33843 1.7706 0.45497 4.6139 1.2385 5.8198 1.6039 0.5405 0.16374 1.288 0.29771 1.6611 0.29771 0.37312 0 0.76739 0.144 0.87617 0.32 0.10877 0.176 0.62127 0.32 1.1389 0.32s0.94111 0.144 0.94111 0.32 0.252 0.32088 0.56 0.32197c0.308 1e-3 0.97246 0.21708 1.4766 0.48 0.50412 0.26291 1.1181 0.47803 1.3643 0.47803s0.69781 0.1272 1.0034 0.28266c0.30561 0.15547 0.98766 0.45863 1.5157 0.67369 1.9265 0.7847 3.04 1.3905 3.04 1.654 0 0.14828 0.33788 0.26961 0.75084 0.26961 0.87883 0 2.5346 0.77185 3.0892 1.44 0.44172 0.53224 2.1522 1.44 2.7134 1.44 0.20628 0 0.71326 0.36 1.1266 0.8 0.41336 0.44 0.91552 0.8 1.1159 0.8 0.55076 0 2.0841 1.7198 2.0841 2.3375 0 0.33724 0.25347 0.54249 0.66996 0.54249 0.40084 0 0.73719 0.25708 0.83732 0.64 0.17094 0.65365 0.73272 0.899 0.73272 0.32 0-0.61996 0.5369-0.30986 0.96958 0.56 0.24075 0.484 0.94805 1.4259 1.5718 2.0931 0.92703 0.99162 1.0485 1.2659 0.66562 1.5026-0.25765 0.15924-0.3681 0.38987-0.24545 0.51252 0.12265 0.12265 0.41973 0.0597 0.66018-0.13983 0.47868-0.39726 0.85829-0.18277 0.85829 0.48496 0 0.29408-0.47234 0.43019-1.52 0.43801-0.836 6e-3 -1.88 0.21713-2.32 0.46866-0.44 0.25152-1.1972 0.46242-1.6828 0.46866-1.6044 0.0206-2.6189 1.3177-3.0713 3.9268-0.58354 3.3657-0.37942 77.925 0.21816 79.688 0.52591 1.5518 2.5061 3.626 3.7359 3.9133 0.528 0.12332 3.192 0.38201 5.92 0.57486 11.134 0.7871 30.637 4e-3 33.76-1.356 2.7885-1.2142 5.0487-2.4342 5.1895-2.8013 0.0874-0.22782 0.39872-0.41421 0.69178-0.41421 0.5617 0 5.7987-5.0666 5.7987-5.61 0-0.17412 0.36-0.70483 0.8-1.1794s0.8-0.96345 0.8-1.0865 0.36-0.69575 0.8-1.2726 0.8-1.2025 0.8-1.3902c0-0.18775 0.144-0.34135 0.32-0.34135s0.32-0.28146 0.32-0.62546 0.36-0.98545 0.8-1.4254 0.8-1.0902 0.8-1.4448c0-0.35464 0.288-1.1576 0.64-1.7843 0.352-0.62671 0.64-1.4951 0.64-1.9297 0-1.1048 0.50934-0.98547 0.92869 0.21749 0.43867 1.2584 0.45561 3.05 0.0313 3.3122-0.176 0.10877-0.32 0.6389-0.32 1.1781 0 0.842-0.0688 0.9232-0.48773 0.57552-0.26826-0.22263-0.59226-0.29255-0.72-0.15537-0.12775 0.13717-0.0523 0.31369 0.16773 0.39226 0.43987 0.1571 0.56294 2.3295 0.13197 2.3295-0.25902 0-0.88865 1.8108-1.669 4.8-0.20676 0.792-0.49266 1.728-0.63534 2.08-0.27618 0.68133-0.56569 1.9121-0.84416 3.5888-0.094 0.56584-0.37171 1.1955-0.61717 1.3992-0.24547 0.20372-0.4463 0.70427-0.4463 1.1123 0 0.40807-0.144 0.83093-0.32 0.93971-0.176 0.10877-0.32 0.54077-0.32 0.96 0 0.41922-0.144 0.85122-0.32 0.96-0.176 0.10877-0.32458 0.65727-0.33018 1.2189-6e-3 0.56161-0.2216 1.3006-0.48 1.6423s-0.46982 1.0256-0.46982 1.52v0.89884h-42.36c-23.298 0-42.782 0.0844-43.298 0.18758-0.63761 0.12752-1.0691 0.0295-1.3475-0.30598zm34.079-100.91c-0.32528-0.32528-0.59368 0.16445-0.32679 0.59629 0.20161 0.32621 0.27698 0.32646 0.38538 1e-3 0.07411-0.22234 0.04775-0.49124-0.05859-0.59758zm257.81 101.11c-8.0839-0.0697-10.32-0.1771-10.32-0.49552 0-0.22357 0.78674-1.1835 1.7483-2.1331 2.4029-2.3731 2.6081-3.2406 3.0682-12.972 0.40143-8.4905 0.208-59.118-0.25681-67.216-0.26683-4.6488-0.72742-5.9035-2.1671-5.9035-0.43594 0-0.79262-0.144-0.79262-0.32s-0.27951-0.32-0.62112-0.32c-0.96944 0-1.1201-0.62425-0.37468-1.552 0.37481-0.46643 0.82063-1.172 0.99071-1.568 0.17009-0.396 0.50056-0.72 0.73439-0.72s0.91365-0.504 1.5107-1.12 1.2519-1.12 1.4553-1.12 0.82181-0.432 1.3743-0.96 1.2264-0.96 1.4975-0.96c0.27112 0 0.57822-0.22222 0.68245-0.49382 0.1677-0.43702 0.25854-0.43132 0.78995 0.0496 0.56902 0.51495 0.60047 0.50852 0.60047-0.12275 0-0.63872 1.4847-1.673 2.4015-1.673 0.21075 0 1.0602-0.36 1.8878-0.8 0.82752-0.44 1.7765-0.8 2.1088-0.8s0.69318-0.144 0.80196-0.32c0.10877-0.176 0.68477-0.32 1.28-0.32 0.59522 0 1.1712-0.144 1.28-0.32 0.10877-0.176 0.63551-0.32 1.1705-0.32s1.4265-0.20767 1.9811-0.46148c0.5546-0.25381 1.8724-0.53455 2.9284-0.62387 2.9361-0.24833 4.6258-0.55272 4.8209-0.86846 0.24378-0.39445 3.6591-0.3629 3.6591 0.0338 0 0.176-0.49551 0.32-1.1011 0.32s-1.1901 0.144-1.2989 0.32c-0.10878 0.176-0.45515 0.32-0.76973 0.32-0.66278 0-2.4909 0.86039-2.7628 1.3003-0.10188 0.16486-0.43296 0.29974-0.73572 0.29974s-0.75805 0.288-1.0118 0.64c-0.25371 0.352-0.69253 0.64-0.97516 0.64-0.62211 0-5.4248 4.8627-5.4248 5.4926 0 0.24535-0.288 0.65368-0.64 0.90739-0.352 0.2537-0.64 0.69986-0.64 0.99146 0 0.29159-0.216 0.70944-0.48 0.92854s-0.48 0.66023-0.48 0.98029c0 0.32007-0.144 0.67093-0.32 0.77971-0.176 0.10877-0.32 0.52047-0.32 0.91488 0 0.39442-0.13279 0.85392-0.29508 1.0211-0.59027 0.60812-0.71223 5.7021-0.92663 38.704-0.17904 27.558-0.29742 33.754-0.65829 34.455-0.3644 0.70814-0.36897 1.038-0.0266 1.92 0.22738 0.58572 0.52715 2.217 0.66616 3.625 0.49479 5.0118 0.51981 5.0844 2.4255 7.0363 0.96942 0.99291 2.116 1.9397 2.548 2.1039 0.84976 0.32308 0.7329 0.98772-0.15198 0.86441-0.29761-0.0415-5.1851-0.11547-10.861-0.16444zm27.326-5e-3c-0.0982-0.15884 0.46326-0.91864 1.2476-1.6884s1.4261-1.5233 1.4261-1.6744 0.34263-0.73312 0.76141-1.2934c0.67914-0.90858 0.78914-1.5027 1.018-5.4986 0.3312-5.7821 0.3415-32.671 0.0151-39.52-0.27996-5.8754-0.48168-6.5894-2.4281-8.5951-1.4682-1.5129-1.6018-1.9364-0.54699-1.7348 0.43126 0.0824 0.91439-0.0694 1.1592-0.36437 0.25052-0.30186 0.91991-0.50573 1.6605-0.50573 0.68245 0 1.2408-0.144 1.2408-0.32s0.504-0.32 1.12-0.32 1.12-0.144 1.12-0.32 0.324-0.32458 0.72-0.33018c0.396-6e-3 0.99952-0.2216 1.3412-0.48s0.88164-0.46982 1.2-0.46982 0.57884-0.144 0.57884-0.32 0.20882-0.32 0.46404-0.32c0.54255 0 3.4369-1.556 4.3523-2.3398 0.34703-0.29713 0.84531-0.54024 1.1073-0.54024 0.53218 0 0.65506 1.1318 0.15635 1.44-0.176 0.10877-0.32 0.68477-0.32 1.28 0 0.59522-0.12162 1.1574-0.27027 1.2493-0.72884 0.45045-1.1382 37.391-0.56423 50.911l0.27173 6.4 1.6304 1.68c1.1976 1.234 1.867 1.68 2.5214 1.68 0.49002 0 0.89093 0.144 0.89093 0.32s0.648 0.32 1.44 0.32c1.2267 0 1.44 0.0948 1.44 0.64 0 0.62844-0.21333 0.64-11.814 0.64-6.4976 0-12.027 0.0818-12.288 0.18181-0.2606 0.1-0.55413 0.0518-0.6523-0.10699zm47.474-0.0636c-5.3456 0.0652-9.238 0.0761-9.5651 0.11545-1.2406 0.14925-3.703-0.0294-3.7401-0.73858-0.0458-0.87364 3.4099-3.3038 4.0673-4.2375 0.32891-0.46717 0.59801-1.2867 0.59801-1.8211 0-0.53444 0.144-1.0607 0.32-1.1695 0.176-0.10878 0.32-0.52048 0.32-0.91489s0.16801-0.88512 0.37334-1.0904c0.28446-0.28446 0.27221-0.90936-0.0514-2.6247-0.35227-1.8669-0.35277-2.7144-3e-3 -4.9631 0.34794-2.2367 0.3491-3.7931 7e-3 -8.884-0.3371-5.0111-0.33911-7.1811-0.0107-11.535 0.22248-2.9495 0.29952-5.9714 0.1712-6.7153s-0.34859-3.0085-0.48947-5.0325c-0.14089-2.024-0.35978-4.112-0.48642-4.64-0.2305-0.96104-1.6218-2.72-2.1514-2.72-0.15481 0-0.73987-0.34279-1.3001-0.76176-0.94409-0.70601-1.5013-0.88368-4.2874-1.3671-0.56583-0.0982-1.1955-0.37935-1.3992-0.62481-0.20372-0.24547-0.54436-0.4463-0.75698-0.4463-0.46351 0-3.1476-1.3329-3.8381-1.906-0.26944-0.22361-0.41098-0.53425-0.31453-0.69031 0.0965-0.15606 3.3984-0.28374 7.3376-0.28374 4.4296 0 7.2377-0.12209 7.36-0.32 0.10878-0.176 0.54078-0.32 0.96-0.32 0.41923 0 0.85123-0.144 0.96-0.32 0.10878-0.176 0.46528-0.32 0.79222-0.32 0.32695 0 0.64245-0.1166 0.70112-0.25912 0.13867-0.33685 3.4663-1.9809 4.0095-1.9809 0.22945 0 0.41717-0.144 0.41717-0.32s0.65938-0.32 1.4653-0.32h1.4653l-0.20008 2.48c-0.26447 3.2783-0.26595 7.1663-4e-3 9.44 0.17521 1.5184 0.31838 1.84 0.81905 1.84 0.3337 0 0.89895-0.252 1.2561-0.56s1.0428-0.63274 1.5237-0.72165c0.76679-0.14177 0.89395-0.33848 1.0343-1.6 0.13228-1.1891 0.28479-1.4561 0.88-1.5406 0.46271-0.0657 0.72-0.32301 0.72-0.72 0-0.33976 0.19388-0.61774 0.43084-0.61774 0.91166 0 2.4492-1.0192 2.4492-1.6234 0-0.48893 0.22725-0.61656 1.0978-0.61656 0.89477 0 1.1166-0.13313 1.2-0.72 0.0784-0.55184 0.34515-0.74342 1.1422-0.82028 0.78081-0.0753 1.04-0.25472 1.04-0.72 0-0.34085 0.17772-0.61972 0.39493-0.61972s1.1172-0.34978 2-0.77728c2.3086-1.118 4.1348-1.5824 5.1784-1.3168 1.8244 0.46428 3.6882 0.56053 4.0401 0.20865 0.52889-0.52889 0.92896-0.43772 1.9563 0.44583 1.1035 0.94903 0.97596 0.92816 1.6364 0.26771 0.40964-0.40964 0.58883-0.43977 0.77963-0.13106 0.13625 0.22046 0.59118 0.57037 1.011 0.77758 0.41977 0.2072 0.90284 0.69231 1.0735 1.078 0.17064 0.3857 0.60264 0.74314 0.96 0.79432 0.38188 0.0547 0.69008 0.37609 0.74761 0.77963 0.0538 0.37762 0.37783 0.93994 0.72 1.2496 0.34217 0.30965 0.62212 0.6783 0.62212 0.8192 0 0.14091 0.36 0.78668 0.8 1.4351s0.8 1.5823 0.8 2.0753c0 0.49305 0.144 0.98545 0.32 1.0942 0.176 0.10877 0.32 0.59247 0.32 1.0749s0.12925 1.0139 0.28723 1.1811c0.15797 0.1672 0.35598 0.88 0.44001 1.584 0.084 0.704 0.39146 2.3372 0.68316 3.6293 0.44152 1.9557 0.57974 5.6283 0.82501 21.92 0.3098 20.578 0.41435 22.611 1.1632 22.611 0.24977 0 0.99127 0.32726 1.6478 0.72726 0.65651 0.39999 1.5896 0.92832 2.0736 1.1741s0.88 0.53717 0.88 0.6476c0 0.55903-5.1621 0.97107-12.166 0.97107-7.3495 0-7.6741-0.0259-7.6741-0.61334 0-0.33733-0.18-0.67712-0.4-0.75508-0.26208-0.0929-0.0966-0.4278 0.48-0.97139 0.484-0.4563 0.88-0.98653 0.88-1.1783 0-0.19176 0.26005-0.62778 0.57788-0.96894 1.3621-1.4621 1.454-2.9592 1.4484-23.606-4e-3 -14.426-0.10327-19.711-0.3758-19.984-0.20379-0.2038-0.37053-1.1252-0.37053-2.0476s-0.144-1.7661-0.32-1.8749c-0.176-0.10878-0.32-0.5553-0.32-0.99227s-0.26221-1.076-0.58269-1.4199c-0.32048-0.344-0.89869-1.2582-1.2849-2.0315-1.0638-2.1302-1.2031-2.1866-5.3084-2.1527-2.1127 0.0175-3.7531-0.10415-3.8659-0.28662-0.25635-0.4148-2.0781-0.41214-2.0781 3e-3 0 0.176-0.216 0.32-0.48 0.32s-0.48 0.144-0.48 0.32-0.28593 0.32-0.6354 0.32-1.5854 0.504-2.7466 1.12c-1.1611 0.616-2.2605 1.12-2.443 1.12-0.18249 0-0.96646 0.66237-1.7421 1.472-1.0275 1.0724-1.5172 1.3832-1.804 1.1452-0.28513-0.23664-0.77357 0.0276-1.7712 0.9582-1.2257 1.1433-1.3192 1.3276-0.84869 1.6716 0.4825 0.35282 0.48425 0.42368 0.0199 0.80903-0.27989 0.2323-0.5089 0.75272-0.5089 1.1565s-0.18 0.79459-0.4 0.86846c-0.3126 0.10496-0.30119 0.31978 0.0522 0.98321 0.38327 0.71946 0.38943 1.3252 0.0404 3.9724-0.40551 3.0757-0.37375 7.3343 0.18229 24.447 0.12857 3.9565 0.0716 6.5329-0.1691 7.6555-0.2482 1.1573-0.25906 1.7959-0.0344 2.0206 0.18069 0.18068 0.32852 0.65483 0.32852 1.0537 0 0.81942 0.90239 2.9176 1.5468 3.5965 0.23474 0.24731 0.55518 0.78731 0.71208 1.2 0.25176 0.66216 0.49306 0.75035 2.0532 0.75035 1.5546 0 1.7679 0.0772 1.7679 0.64 0 0.4352 0.21334 0.64 0.66667 0.64 0.84232 0 0.63756 0.79254-0.21173 0.81955-0.33821 0.0108-4.5749-0.065-9.4149-0.16836zm-240.8-1.6116c-0.1113-0.18009-1.6504-0.32-3.52-0.32-2.0356 0-3.405-0.13397-3.536-0.34593-0.11758-0.19026-0.56104-0.25878-0.98545-0.15226-0.81475 0.20449-2.0385-0.27161-2.0385-0.79307 0-0.18186 1.6439-0.30874 4-0.30874h4v-0.896c0-0.4928 0.16669-1.0627 0.37044-1.2664 0.43718-0.43719-0.16411-1.3576-0.88691-1.3576-0.24096 0-0.61476-0.28286-0.83066-0.62857-0.27987-0.44815-0.60721-0.57469-1.1404-0.44087-0.52361 0.13142-0.99564-0.0399-1.5741-0.57143-0.56819-0.52208-0.87077-0.63423-0.96896-0.35913-0.17079 0.47851-2.9694 0.55391-2.9694 0.08 0-0.176-0.54-0.32458-1.2-0.33018-0.66-6e-3 -1.4795-0.2216-1.8212-0.48s-0.93132-0.46982-1.3104-0.46982c-0.37908 0-0.94942-0.2875-1.2674-0.63887-0.4733-0.52299-0.66586-0.56653-1.0616-0.24-0.38615 0.31857-0.51057 0.31834-0.6181-1e-3 -0.074-0.22-0.5991-0.4-1.1668-0.4-0.56769 0-1.3117-0.21142-1.6533-0.46983-0.34164-0.2584-0.82129-0.4744-1.0659-0.48-0.59696-0.0137-1.2926-0.97333-1.3051-1.8006-6e-3 -0.36872-0.29925-0.93201-0.65256-1.2518-0.88134-0.7976-1.5976-2.3166-1.5976-3.3881 0-0.49058-0.144-0.98095-0.32-1.0897-0.4532-0.2801-0.39775-2.1942 0.0773-2.6693 0.29334-0.29334 0.30173-0.45665 0.032-0.624-0.98238-0.60961-1.0603-15.853-0.0861-16.851 0.16321-0.1672 0.29675-1.3467 0.29675-2.6211s0.144-2.4061 0.32-2.5149c0.176-0.10878 0.32-0.62128 0.32-1.1389 0-0.71824 0.14709-0.94111 0.62111-0.94111 0.80614 0 1.1855-0.62435 0.61989-1.0201-0.34105-0.23865-0.35034-0.34537-0.041-0.47089 0.22-0.0893 0.4-0.42981 0.4-0.75675 0-0.32695 0.144-0.68345 0.32-0.79222 0.176-0.10878 0.32-0.61126 0.32-1.1166 0-0.70926 0.16424-0.94219 0.72-1.0211 0.53348-0.0758 0.74766-0.35095 0.82677-1.0622 0.12015-1.0803 0.87812-2.08 1.5771-2.08 0.30346 0 0.39316-0.18628 0.25858-0.537-0.14321-0.37318 0.25756-1.0077 1.3137-2.08 0.83589-0.84865 1.6876-1.543 1.8926-1.543 0.20506 0 0.55358-0.21778 0.77448-0.48395 0.27777-0.33469 0.52099-0.3849 0.78863-0.16278 0.49154 0.40795 0.8081 0.0957 0.8081-0.79701 0-0.80432 0.92426-1.7563 1.7052-1.7563 0.29414 0 0.5348-0.144 0.5348-0.32s0.348-0.32 0.77333-0.32 0.82133-0.108 0.88-0.24c0.15721-0.35373 3.5545-2 4.1273-2 0.27027 0 0.6362 0.14479 0.81317 0.32176 0.21569 0.21569 0.54887 0.11019 1.0106-0.32 0.7838-0.73022 2.0076-0.82878 3.0018-0.24176 0.54197 0.32 0.70644 0.32 0.82232 0 0.17997-0.49696 7.4741-0.56941 7.9644-0.0791 0.17649 0.17649 0.88929 0.36013 1.584 0.40808 0.69471 0.048 1.4791 0.2268 1.7431 0.39742 1.0248 0.66237 2.0122 1.1136 2.4366 1.1136 0.24388 0 0.44342 0.144 0.44342 0.32s0.288 0.32 0.64 0.32c0.42666 0 0.64 0.21333 0.64 0.64 0 0.35555 0.21333 0.64 0.48 0.64 0.264 0 0.48-0.15133 0.48-0.33629s0.48159 0.031 1.0702 0.48c0.58862 0.44896 1.2366 0.81629 1.44 0.81629 0.20339 0 0.3698 0.144 0.3698 0.32s-0.144 0.32-0.32 0.32-0.32 0.216-0.32 0.48 0.15777 0.48 0.3506 0.48c0.7817 0 2.2535 1.4118 2.8602 2.7438 0.35483 0.7789 0.82554 1.4162 1.046 1.4162 0.52142 0 1.5031 1.1518 1.5031 1.7636 0 0.26199 0.144 0.47635 0.32 0.47635s0.32 0.27036 0.32 0.60081 0.19146 0.75972 0.42547 0.95393c0.24312 0.20178 0.36795 0.74503 0.29125 1.2676-0.0825 0.56192 0.0619 1.1106 0.37453 1.4232 0.27981 0.27981 0.50875 1.0145 0.50875 1.6327 0 0.61819 0.144 1.213 0.32 1.3218 0.176 0.10877 0.32 1.3413 0.32 2.7389v2.541h-17.924c-9.8584 0-18.174-0.1272-18.48-0.28267-0.30562-0.15546-0.95166-0.4678-1.4357-0.69407-0.484-0.22628-0.88-0.56844-0.88-0.76036 0-0.92276 1.3297-1.0509 11.521-1.1105 6.908-0.0404 10.748-0.18506 11.439-0.43088l1.04-0.37005v-4.0768c0-2.3727-0.13376-4.1595-0.32-4.2746-0.176-0.10878-0.32-0.52696-0.32-0.92929 0-0.40234-0.288-0.99216-0.64-1.3107-0.352-0.31856-0.64-0.729-0.64-0.91209s-0.396-0.75572-0.88-1.2725c-0.58961-0.62955-0.748-0.98732-0.48-1.0842 0.54608-0.19735 0.5066-0.73122-0.0541-0.73122-0.82192 0-2.4218-1.1089-2.4239-1.68-2e-3 -0.45032-0.2849-0.56-1.4464-0.56-0.79439 0-1.6944-0.1319-2-0.2931-2.6102-1.3768-4.8344-1.6808-5.9768-0.81673-0.83905 0.63463-1.9981 0.59302-2.3777-0.0854-0.2806-0.5014-0.37739-0.4704-0.99913 0.32-0.37863 0.48136-0.96597 0.8752-1.3052 0.8752-0.33922 0-0.61677 0.144-0.61677 0.32s-0.19388 0.32-0.43084 0.32c-0.82729 0-2.2997 0.93998-3.683 2.3512-1.4104 1.4389-1.812 2.0259-2.7697 4.0488-0.29165 0.616-0.66216 1.37-0.82336 1.6756-0.16121 0.30562-0.2931 0.90221-0.2931 1.3258s-0.19896 0.84645-0.44212 0.93976c-0.50418 0.19347-0.74802 1.3486-1.1945 5.6588-0.48469 4.6787-0.26942 11.636 0.3807 12.304 0.16277 0.1672 0.30105 0.8872 0.30729 1.6 6e-3 0.7128 0.21713 1.656 0.46866 2.096 0.25152 0.44 0.46242 1.556 0.46866 2.48 6e-3 0.924 0.15534 1.68 0.33134 1.68s0.32 0.23548 0.32 0.5233 0.36 0.85694 0.8 1.2647 0.8 0.88791 0.8 1.067 0.29764 0.85547 0.66142 1.5032c0.519 0.92402 0.57267 1.2325 0.24927 1.4323-0.22669 0.1401-0.3005 0.36639-0.16403 0.50286 0.13648 0.13647 0.37552 0.042 0.5312-0.20988 0.23877-0.38634 0.38627-0.36461 0.9426 0.13887 0.36275 0.32828 0.65954 0.94484 0.65954 1.3701 0 0.82629 0.66474 1.6876 1.3025 1.6876 0.53587 0 2.1325 1.7201 2.27 2.4456 0.077 0.40608 0.44138 0.62617 1.1501 0.69467 0.91157 0.0881 1.0374 0.21424 1.0374 1.04 0 1.0553 0.0742 1.0987 0.94644 0.55393 0.50879-0.31775 0.7338-0.28078 1.2757 0.2096 0.36184 0.32746 0.6579 0.86107 0.6579 1.1858s0.216 0.59041 0.48 0.59041 0.48-0.144 0.48-0.32 0.4235-0.32 0.94111-0.32c0.51762 0 1.0301 0.144 1.1389 0.32 0.10877 0.176 1.2608 0.32 2.56 0.32 1.2992 0 2.4512 0.144 2.56 0.32 0.10877 0.176 0.54077 0.32 0.96 0.32 0.41922 0 0.85122-0.144 0.96-0.32 0.10877-0.176 1.0533-0.32 2.0989-0.32 1.0541 0 1.9011-0.14258 1.9011-0.32 0-0.176 0.24082-0.32 0.53516-0.32 0.75261 0 2.9666-1.0581 2.9766-1.4225 5e-3 -0.16637 0.37039-0.68048 0.813-1.1425 0.71315-0.74437 0.8133-1.147 0.88-3.5375 0.0684-2.4528 0.13294-2.6975 0.71088-2.6975 0.3697 0 0.68452 0.25396 0.75252 0.60707 0.13834 0.71834 1.4602 2.1129 2.0027 2.1129 0.20894 0 0.79881 0.43834 1.3108 0.9741 0.512 0.53575 1.2476 1.1114 1.6346 1.2792 0.7072 0.30664 1.2586 0.63118 2.8318 1.6667 0.46793 0.308 1.2789 0.56 1.8022 0.56s1.1307 0.216 1.3498 0.48 0.66023 0.48 0.98029 0.48c0.32007 0 0.67093 0.144 0.77971 0.32 0.10877 0.176 0.54927 0.32 0.97888 0.32 0.42962 0 0.78112 0.1269 0.78112 0.28202 0 0.32351-2.0602 1.958-2.468 1.958-0.14889 0-0.47829 0.288-0.73199 0.64-0.25371 0.352-0.64745 0.64-0.87499 0.64-0.45686 0-1.5505 0.56465-2.3848 1.2313-0.29691 0.23724-0.69392 0.33612-0.88226 0.21972-0.18833-0.1164-0.42881 0.0135-0.5344 0.28865-0.10559 0.27516-0.46457 0.50029-0.79774 0.50029s-0.60576 0.144-0.60576 0.32-0.756 0.32458-1.68 0.33017c-0.96696 6e-3 -1.9436 0.20959-2.3012 0.48-0.34164 0.25841-1.0976 0.46983-1.68 0.46983s-1.0588 0.144-1.0588 0.32c0 0.20555-3.1404 0.32-8.7811 0.32-5.5089 0-8.8548-0.11925-8.9789-0.32zm121.92 0c-0.10878-0.176-0.9138-0.32-1.7889-0.32-1.1192 0-1.6458-0.14239-1.7754-0.48-0.10131-0.264-0.38041-0.48-0.62023-0.48-0.23981 0-0.94879-0.288-1.5755-0.64-0.62671-0.352-1.3735-0.64-1.6595-0.64-0.28604 0-0.99205-0.36-1.5689-0.8s-1.338-0.8-1.6913-0.8c-0.35335 0-0.73146-0.144-0.84023-0.32-0.10878-0.176-0.47728-0.32-0.81889-0.32s-0.62111-0.13399-0.62111-0.29775-0.324-0.34376-0.72-0.4c-0.46271-0.0657-0.75655-0.35955-0.82226-0.82225-0.0562-0.396-0.29178-0.72-0.52342-0.72-0.66539 0-2.026-0.79499-3.2197-1.8812-0.60366-0.54932-1.2455-0.99876-1.4263-0.99876-0.48574 0-3.8483-3.5322-3.8483-4.0425 0-0.24064-0.1271-0.43753-0.28245-0.43753-0.33589 0-1.9576-3.2208-1.9576-3.8879 0-0.25526-0.12925-0.6009-0.28723-0.7681-0.56634-0.59942-0.75725-3.3011-0.75641-10.704 9.6e-4 -8.3607 0.26058-11.964 0.93626-12.995 0.24871-0.37957 0.42148-0.81489 0.38394-0.96736-0.0649-0.2638 0.42078-1.5522 1.0379-2.7529 0.15706-0.30561 0.28557-0.79602 0.28557-1.0898 0-0.29377 0.33234-0.97973 0.73853-1.5243 0.4062-0.54461 0.98542-1.5228 1.2872-2.1737 0.30174-0.6509 1.2654-1.9078 2.1415-2.7932 0.87606-0.88532 1.5928-1.7539 1.5928-1.9302 0-0.46791 3.9615-4.4931 4.422-4.4931 0.21488 0 0.92783-0.32727 1.5843-0.72726 1.1119-0.67747 1.87-1.0527 3.6736-1.8184 2.3356-0.9915 3.2949-1.2943 4.1002-1.2943 0.49612 0 0.99103-0.144 1.0998-0.32 0.28986-0.46901 8.204-0.36454 11.04 0.14574 2.6504 0.47688 4.2302 1.0073 5.5231 1.8544 0.46993 0.3079 1.0259 0.55983 1.2355 0.55983s0.85304 0.36 1.4299 0.8 1.1743 0.8 1.3277 0.8 0.82906 0.504 1.5016 1.12c0.67252 0.616 1.4207 1.12 1.6625 1.12s0.43978 0.19387 0.43978 0.43083c0 0.61367 0.88625 2.3096 1.4525 2.7796 0.2636 0.21876 0.70902 0.88192 0.98982 1.4737 0.28081 0.59175 0.63815 1.0759 0.7941 1.0759 0.15594 0 0.28354 0.2795 0.28354 0.62111s0.13068 0.70188 0.2904 0.80059c0.15972 0.0987 0.5345 1.0072 0.83284 2.0189 0.29833 1.0117 0.68758 2.2317 0.86499 2.7111 0.50119 1.3545 0.18869 5.5685-0.46114 6.2183-0.70986 0.70986-6.9253 1.0246-8.6956 0.44034-0.92892-0.30657-1.2769-0.30469-1.6548 9e-3 -0.38145 0.31658-0.63334 0.31428-1.2417-0.0113-0.52413-0.2805-1.2474-0.33245-2.3091-0.16584-0.85024 0.13344-7.9539 0.33154-15.786 0.44022l-14.24 0.19761-0.098 2.72c-0.12847 3.5645 0.88093 9.9038 1.8973 11.916 0.15439 0.30562 0.28072 0.82051 0.28072 1.1442s0.36 0.92677 0.8 1.3401c0.44 0.41335 0.8 0.91418 0.8 1.113 0 0.62817 1.5875 3.5765 2.2471 4.1735 0.34808 0.31501 0.63288 0.74503 0.63288 0.9556 0 0.67491 3.6907 4.1324 5.231 4.9004 0.81894 0.40835 1.489 0.94835 1.489 1.2 0 0.25166 0.2976 0.45756 0.66135 0.45756 0.36374 0 1.1333 0.36 1.7102 0.8s1.3508 0.8 1.7198 0.8 0.7505 0.12878 0.84779 0.28619c0.25626 0.41465 2.4048 0.70823 6.4397 0.87991l3.5388 0.15058 2.2212-1.1712c2.4658-1.3003 3.3412-1.9703 3.3412-2.5577 0-0.21619 0.31168-0.47459 0.69262-0.57421 0.55462-0.14503 0.61793-0.27112 0.31774-0.63283-0.28979-0.34918-0.2583-0.73072 0.13873-1.681 0.55866-1.337 0.42816-3.2782-0.24849-3.6964-0.22114-0.13667-0.29264-0.35792-0.15889-0.49167 0.13374-0.13375 1.2504 0.79442 2.4814 2.0626 1.231 1.2682 2.4271 2.3058 2.658 2.3058s0.68035 0.288 0.99891 0.64c0.31855 0.352 0.83637 0.64 1.1507 0.64 0.31433 0 0.65279 0.1315 0.75213 0.29223 0.23102 0.3738 3.3772 1.9478 3.8933 1.9478 0.21478 0 0.44931 0.17642 0.52119 0.39205 0.11384 0.34153 0.76119 0.43095 4.0026 0.5529 0.72804 0.0274 0.41551 0.96995-0.64 1.9302-0.572 0.52036-1.2024 0.95033-1.4008 0.95549-0.19845 5e-3 -0.5376 0.22239-0.75367 0.48274-0.40844 0.49213-2.1378 1.4466-2.621 1.4466-0.15245 0-0.84747 0.36-1.5445 0.8-0.69701 0.44-1.4862 0.8-1.7536 0.8-0.26749 0-0.48635 0.144-0.48635 0.32s-0.396 0.3251-0.88 0.33133c-0.484 6e-3 -1.24 0.21714-1.68 0.46867-0.44 0.25152-1.3315 0.46242-1.9811 0.46866-0.64961 6e-3 -1.2701 0.15534-1.3789 0.33134-0.12392 0.20049-3.4104 0.32-8.8 0.32-5.3896 0-8.6761-0.11951-8.8-0.32zm12.615-43.014c0.6265-0.66688 0.70318-1.0095 0.55504-2.48-0.36347-3.6082-0.73491-5.2976-1.42-6.4588-0.3907-0.66219-0.71036-1.4118-0.71036-1.6657 0-0.25394-0.144-0.46171-0.32-0.46171s-0.32-0.19954-0.32-0.44343c0-0.93832-1.4876-3.0766-2.1404-3.0766-0.14637 0-0.65437-0.36-1.1289-0.8s-1.085-0.8-1.3567-0.8-0.49396-0.144-0.49396-0.32-0.27951-0.32-0.62112-0.32-0.71011-0.144-0.81888-0.32c-0.10878-0.176-0.59248-0.32-1.0749-0.32s-1.0366-0.15952-1.2316-0.35448c-0.65176-0.65176-4.3471-0.73281-6.378-0.13989-1.0315 0.30115-2.1209 0.67663-2.4207 0.8344-0.33375 0.17562-0.62029 0.1653-0.73888-0.0266-0.33095-0.53548-0.79595-0.3447-0.79595 0.32657 0 0.35892-0.21334 0.64-0.48575 0.64-0.26716 0-1.3797 0.864-2.4724 1.92s-2.1701 1.92-2.3942 1.92-0.40761 0.3104-0.40761 0.68979-0.32819 1.1354-0.72931 1.68c-1.0789 1.4649-2.0916 3.7183-2.2425 4.9902-0.0731 0.616-0.32052 1.7752-0.54981 2.5761-0.37045 1.2938-0.35383 1.5523 0.14918 2.32l0.56607 0.86394h29.255zm58.585-31.497c0-0.32472-0.288-0.85104-0.64-1.1696-0.72681-0.65776-0.82369-1.4483-0.24802-2.024 0.30932-0.30932 0.30874-0.52529-3e-3 -1.024-0.34155-0.54691-0.26503-0.76777 0.56802-1.6395 0.99001-1.036 1.2039-1.5525 0.64274-1.5525-0.176 0-0.32-0.2696-0.32-0.59912 0-0.56719 0.4042-0.60185 7.5864-0.6505 6.166-0.0418 7.6835-0.1393 8.1052-0.52089 0.28534-0.25822 0.83145-0.46949 1.2136-0.46949s0.69481-0.144 0.69481-0.32 0.648-0.32 1.44-0.32 1.44-0.144 1.44-0.32 0.21887-0.32 0.48636-0.32c0.54408 0 3.1344-1.5445 3.3003-1.9678 0.0587-0.1497 0.60717-0.27217 1.2189-0.27217 0.65999 0 1.0318 0.13011 0.91444 0.32-0.10877 0.176-0.44309 0.32-0.74293 0.32s-0.81551 0.36-1.1459 0.8c-0.33042 0.44-0.7722 0.8-0.98172 0.8-0.69052 0-3.3885 1.5145-4.5004 2.5264-0.60056 0.5465-1.246 0.99363-1.4344 0.99363s-0.73074 0.36-1.2053 0.8-1.0442 0.8-1.266 0.8c-0.22179 0-0.40326 0.12759-0.40326 0.28354 0 0.15594-0.4756 0.50922-1.0569 0.78506s-1.3236 0.79625-1.6496 1.1565c-0.32599 0.36022-0.85839 0.65494-1.1831 0.65494s-0.5904 0.144-0.5904 0.32-0.235 0.32-0.52222 0.32-1.0019 0.50857-1.5881 1.1302c-0.92058 0.97611-1.1495 1.0779-1.6796 0.74684-0.5014-0.31314-0.88379-0.2564-2.0884 0.30984-1.9094 0.89754-4.3616 0.95531-4.3616 0.10276zm-244.79-39.736c-0.5556 0.34338-0.12782 0.96674 0.66344 0.96674 0.35012 0 1.2327 0.288 1.9612 0.64 0.72856 0.352 1.5594 0.64 1.8464 0.64z" fill="#164069" style="paint-order:stroke fill markers"/><path id="path2" d="m78.694-207.94c-2.6988-0.2513-10.075-1.1177-11.84-1.3907-0.968-0.14974-2.4473-0.37364-3.2874-0.49757s-1.6045-0.35022-1.6989-0.50288c-0.0944-0.15265-0.52304-0.27755-0.95266-0.27755-0.48099 0-0.78111-0.18443-0.78111-0.48s0.30012-0.48 0.78111-0.48c0.42962 0 0.87012-0.144 0.97889-0.32s0.69779-0.32 1.3089-0.32c0.61574 0 1.1612-0.17835 1.2234-0.4 0.0617-0.22 0.30026-1.0241 0.53008-1.787 0.34004-1.1287 0.34158-1.5091 8e-3 -2.0429-0.33515-0.53667-0.33202-0.70386 0.0172-0.91969 0.33993-0.21009 0.34593-0.34468 0.0295-0.66112-0.21853-0.21853-0.39732-0.73304-0.39732-1.1434 0-0.41848-0.24587-0.83674-0.56-0.95262-0.308-0.11362-1.0971-0.5411-1.7536-0.94995-0.65651-0.40886-1.4125-0.74338-1.68-0.74338-0.2675 0-0.48636-0.15361-0.48636-0.34135 0-0.18775-0.36-0.81334-0.8-1.3902-0.44-0.57687-0.8-1.2153-0.8-1.4186 0-0.20338-0.15361-0.36979-0.34135-0.36979s-0.81334-0.36-1.3902-0.8c-0.58023-0.44256-1.4779-0.8-2.0091-0.8-0.95919 0-1.7459-0.62326-2.1207-1.68-0.10923-0.308-0.49307-0.56-0.85298-0.56s-0.90443-0.13349-1.21-0.29664c-0.30561-0.16316-0.80766-0.37464-1.1157-0.46996-0.308-0.0953-0.56-0.46584-0.56-0.82336 0-0.41851-0.21029-0.65004-0.5904-0.65004-0.32472 0-0.85104-0.288-1.1696-0.64s-0.70779-0.64-0.86497-0.64c-0.15718 0-1.0737-0.504-2.0366-1.12s-1.8263-1.12-1.9186-1.12c-0.09226 0-0.556-0.36-1.0305-0.8s-0.99896-0.8-1.1654-0.8-0.64351-0.32023-1.0601-0.71162c-0.64134-0.6025-0.80238-0.6393-1.0503-0.24-0.22948 0.36958-1.4721-0.72003-5.7431-5.036-2.9977-3.0292-5.4503-5.6603-5.4503-5.8469s-0.70941-1.0561-1.5765-1.9324c-0.86705-0.87623-1.9752-2.4211-2.4627-3.4332-0.4874-1.012-1.218-2.2856-1.6235-2.8302-0.40554-0.54461-0.73735-1.0906-0.73735-1.2134 0-0.12274-0.29357-0.53829-0.65238-0.92342-0.35881-0.38514-0.72887-1.0631-0.82235-1.5066-0.09348-0.44351-0.66391-1.7854-1.2676-2.982-0.60366-1.1966-1.0976-2.4566-1.0976-2.8s-0.144-0.62434-0.32-0.62434-0.32-0.19388-0.32-0.43084c0-0.55026-0.90673-2.3785-1.3003-2.6217-0.16486-0.10188-0.29974-0.74425-0.29974-1.4275 0-0.68323-0.144-1.3312-0.32-1.44-0.176-0.10878-0.32-0.55123-0.32-0.98323s-0.17455-1.065-0.38789-1.4066c-0.21334-0.34161-0.28385-0.72514-0.15669-0.8523 0.31127-0.31126 1.1069 0.79392 1.3549 1.8821 0.11031 0.484 0.33312 0.88 0.49514 0.88s0.29458 0.648 0.29458 1.44 0.144 1.44 0.32 1.44 0.32 0.2795 0.32 0.62111c0 0.34162 0.144 0.71011 0.32 0.81889 0.176 0.10877 0.32 0.54185 0.32 0.9624 0 0.42054 0.36 1.1531 0.8 1.6278 0.44 0.47477 0.8 1.1846 0.8 1.5773s0.22838 0.90363 0.50751 1.1353 0.81399 1.0773 1.1886 1.8792c0.37459 0.80189 0.93821 1.7371 1.2525 2.0783 0.31428 0.34118 0.57142 0.78094 0.57142 0.97722 0 0.19629 0.504 0.84539 1.12 1.4424s1.1245 1.2373 1.13 1.4228c0.0055 0.18548 0.86949 1.2512 1.92 2.3683 1.0505 1.1171 1.91 2.1671 1.91 2.3333 0 0.43023 7.019 7.3139 7.4677 7.3238 0.56829 0.0125 3.4123 3.0384 3.4123 3.6305 0 0.7605-0.17458 0.67195-1.8113-0.91875-1.2652-1.2297-2.6687-1.8877-2.6687-1.2513 0 0.29788 1.4015 1.3889 1.7992 1.4006 0.19758 6e-3 0.96447 0.66724 1.7042 1.4698 1.0963 1.1893 1.4301 1.3884 1.8057 1.0767 0.36762-0.3051 0.57384-0.25196 1.0204 0.26292 0.30781 0.3549 0.84559 0.7036 1.1951 0.77487 0.37486 0.0765 0.59913 0.34457 0.54692 0.65386-0.12401 0.73474 0.41758 0.97994 0.89468 0.40506 0.32442-0.39091 0.48939-0.40516 0.88533-0.0765 0.68656 0.56993 8.0041 0.53742 10.384-0.0461 1.0097-0.24754 2.076-0.71554 2.3696-1.04 0.29363-0.32445 0.69155-0.59116 0.88427-0.59269 0.19272-2e-3 0.88079-0.50552 1.529-1.12 0.64825-0.61447 1.4042-1.1172 1.68-1.1172s0.50136-0.11295 0.50136-0.25101c0-0.13805 0.43876-0.51018 0.97502-0.82696 0.90873-0.5368 1.0294-0.54036 1.7743-0.0523 0.4396 0.28803 0.92796 0.86218 1.0852 1.2759 0.15729 0.4137 0.44105 0.84801 0.63057 0.96514 0.43751 0.2704 1.2949 2.3027 1.2949 3.0694 0 0.7701 0.63489 1.137 1.0051 0.5808 0.23062-0.34648 0.49729-0.20354 1.2442 0.66692 0.52288 0.60935 0.95069 1.4056 0.95069 1.7694 0 0.36379 0.288 0.86902 0.64 1.1227 0.7243 0.52204 0.83554 1.1568 0.24 1.3695-0.23266 0.0831-0.28127 0.26159-0.11619 0.42667s0.34357 0.11647 0.42667-0.11619c0.21269-0.59555 0.84747-0.4843 1.3695 0.24 0.25371 0.352 0.61097 0.64 0.79391 0.64 0.53118 0 2.0974 1.5882 2.4307 2.4648 0.24153 0.63527 0.46051 0.7631 1.0527 0.61448 0.91204-0.22891 1.2817 0.0717 0.80074 0.65124-0.48773 0.58768 0.0105 1.1364 1.7201 1.8944 1.7818 0.78993 2.4151 1.3808 1.8528 1.7284-0.55561 0.34338-0.12782 0.96674 0.66344 0.96674 0.35012 0 1.2327 0.288 1.9612 0.64 0.72856 0.352 1.5594 0.64 1.8464 0.64 0.28697 0 1.0879 0.5113 1.7799 1.1362l1.2581 1.1362 5.28-0.14431c2.904-0.0794 6.504-0.30178 8-0.49422 4.6517-0.59841 9.0518-1.2721 10.72-1.6412 0.88-0.19475 2.176-0.4259 2.88-0.51367 0.704-0.0878 1.496-0.24614 1.76-0.35191s1.3821-0.49847 2.4847-0.87265c1.1026-0.37419 2.2922-0.92651 2.6437-1.2274 0.35141-0.30088 0.76961-0.54706 0.92933-0.54706 0.15973 0 0.73317-0.252 1.2743-0.56 0.83275-0.47397 0.98422-0.75095 0.98593-1.8029 1e-3 -0.68358 0.17266-1.8124 0.38121-2.5085 0.29225-0.97544 0.29225-1.4048 0-1.8728-0.46284-0.74114-0.49297-1.7878-0.0592-2.0559 0.4421-0.27324 0.40443-2.9585-0.0436-3.1079-0.2612-0.0871-0.24458-0.31177 0.059-0.79787 0.34719-0.55595 0.3542-1.895 0.0393-7.5055-0.21084-3.7558-0.38139-8.9081-0.379-11.45 6e-3 -5.8589-0.42753-8.128-1.8298-9.5884-0.57521-0.599-1.0458-1.2762-1.0458-1.505 0-0.22874-0.504-0.65506-1.12-0.94737s-1.12-0.64905-1.12-0.79276c0-0.1437-0.32253-0.30729-0.71673-0.36354-0.40358-0.0576-0.76819-0.37199-0.83451-0.71962-0.1611-0.84441-0.60658-1.2149-2.2888-1.9033-2.6453-1.0826-2.905-1.1594-3.9191-1.1594-0.78474 0-0.92362-0.0853-0.62495-0.384 0.62888-0.62887 0.43837-0.97903-0.416-0.7646-0.72102 0.18097-0.8 0.10541-0.8-0.76531 0-0.81346-0.1246-0.96609-0.78865-0.96609-0.73011 0-2.7382-0.9579-4.6514-2.2187-1.9028-1.254-4.1586-2.2613-5.0644-2.2613-0.5378 0-1.0668-0.144-1.1756-0.32-0.10878-0.176-0.6777-0.32-1.2643-0.32-0.81339 0-1.4466-0.34175-2.6681-1.44-0.88089-0.792-1.8685-1.4421-2.1946-1.4447-0.66064-5e-3 -3.0906-0.77884-4.1785-1.3303-0.38804-0.19671-0.9348-0.84081-1.215-1.4313-0.32342-0.68156-0.73932-1.0737-1.1388-1.0737-0.34613 0-0.87937-0.1319-1.185-0.2931-0.30562-0.1612-1.0597-0.5117-1.6757-0.77888-0.616-0.26719-1.438-0.78329-1.8266-1.1469-0.38864-0.36361-0.92864-0.66111-1.2-0.66111s-0.49338-0.144-0.49338-0.32-0.27951-0.32-0.62112-0.32-0.69862-0.1254-0.79334-0.27867c-0.0947-0.15327-0.57545-0.35931-1.0683-0.45788-0.49282-0.0986-1.3296-0.58516-1.8596-1.0813-1.0975-1.0276-4.1868-2.6746-5.0028-2.6671-0.29978 3e-3 -0.80378-0.36067-1.12-0.80759-1.4089-1.9913-3.2276-3.584-5.5913-4.8966-0.94522-0.52491-2.0344-0.69776-5.5435-0.87977-3.3576-0.17415-4.52-0.35027-5.0283-0.76186-0.6354-0.51451-0.63965-0.56811-0.10938-1.3774 0.30346-0.46314 0.97155-1.0279 1.4847-1.255l0.93292-0.41295 0.0095-6.8819c0.01395-10.136 0.46955-18.109 1.0888-19.054 0.27597-0.42118 0.50176-0.98685 0.50176-1.257s0.144-0.49126 0.32-0.49126 0.32-0.21984 0.32-0.48853 0.45827-0.99213 1.0184-1.6076c1.0647-1.17 2.8021-4.4277 2.8145-5.2772 4e-3 -0.27136 0.65517-1.1293 1.4472-1.9066 0.85473-0.83886 1.44-1.7036 1.44-2.1277 0-0.39297 0.144-0.80349 0.32-0.91226s0.32-0.5288 0.32-0.9334c0-0.40459 0.504-1.7026 1.12-2.8844 0.64418-1.2359 1.12-2.6147 1.12-3.2455 0-0.76155 0.1467-1.0968 0.48-1.0968 0.74185 0 1.76-1.1923 1.76-2.0611 0-0.42962 0.144-0.87012 0.32-0.97889s0.32-0.68219 0.32-1.2743c0-1.5889 1.4557-2.9281 3.4317-3.1571 0.84054-0.0974 9.3043-0.33887 18.808-0.5366 16.302-0.33917 19.04-0.52766 19.04-1.3109-6e-5 -0.15463 0.19385-0.28116 0.43086-0.28116 0.237 0 0.94986-0.504 1.5841-1.12 0.63427-0.616 1.36-1.12 1.6126-1.12 0.57577 0 1.3026 1.5511 1.7994 3.84 0.2101 0.968 0.51495 2.2022 0.67745 2.7427s0.29546 1.1718 0.29546 1.4028 1.008 1.4813 2.24 2.7782c1.7939 1.8885 2.24 2.5576 2.24 3.3596 0 1.0235 0.96604 2.1966 1.809 2.1966 0.23707 0 0.44156 0.252 0.45443 0.56 0.0129 0.308 0.26486 0.93303 0.56 1.389 1.8322 2.8304 2.4225 3.6629 2.6644 3.7577 0.14969 0.0587 0.27217 0.36096 0.27217 0.67177 0 0.36846 0.50112 0.77177 1.44 1.1589 0.792 0.32661 1.44 0.75521 1.44 0.95245 0 0.39353 1.336 1.7502 1.7235 1.7502 0.33603 0 1.1565 0.8523 1.1565 1.2014 0 0.61716 2.4625 2.3186 3.3557 2.3186 0.26713 0 0.48434 0.28029 0.48434 0.62499 0 0.41077 0.4113 0.81413 1.2 1.1768 0.66 0.30351 1.63 0.85027 2.1555 1.215 1.3659 0.948 2.4051 1.4632 2.9517 1.4632 0.26071 0 0.85814 0.27351 1.3276 0.60781s1.2004 0.6583 1.6243 0.72c1.2401 0.18051 1.1008 0.77018-0.29048 1.2293-0.99182 0.32733-1.565 0.34343-2.4886 0.0699-0.66-0.19547-1.6223-0.44386-2.1384-0.55198-0.51614-0.10812-1.5152-0.47524-2.2201-0.81582-0.70492-0.34058-1.6781-0.61924-2.1627-0.61924-0.48456 0-0.97001-0.144-1.0788-0.32-0.10878-0.176-0.45496-0.32-0.76929-0.32-0.31434 0-0.83312-0.28907-1.1529-0.64238-0.66218-0.73169-2.2685-1.5976-2.9637-1.5976-0.62336 0-3.5941-1.629-3.5941-1.9709 0-0.14802-0.22494-0.26914-0.49987-0.26914-1.1356 0-3.6977-1.0866-4.6037-1.9524-0.53386-0.51018-1.1149-0.9276-1.2911-0.9276-0.17626 0-0.67282-0.30636-1.1035-0.68079-0.43063-0.37444-1.1129-0.84528-1.5161-1.0463s-0.90082-0.70184-1.1058-1.1129-0.70894-0.91506-1.12-1.12-0.89607-0.65777-1.0778-1.0063c-0.91725-1.7592-1.0948-1.9376-1.4266-1.4337-0.26046 0.39552-0.42969 0.4096-0.96152 0.08-0.35498-0.22-0.87366-0.4-1.1526-0.4-0.58077 0-1.4262-0.76696-1.9058-1.7288-0.18059-0.36222-0.66858-0.82821-1.0844-1.0355s-1.7126-1.3262-2.8817-2.4863c-1.3056-1.2956-2.393-2.1094-2.8187-2.1094-0.38119 0-0.78208-0.144-0.89085-0.32-0.27223-0.44048-1.8688-0.40315-2.3264 0.0544-0.28405 0.28405-0.66628 0.28566-1.584 7e-3 -0.66529-0.20224-3.0096-0.42508-5.2096-0.4952-7.7315-0.24643-17.128-0.87117-17.882-1.1889-0.56417-0.23788-0.89585-0.20565-1.28 0.12437-0.28518 0.245-0.9865 0.64557-1.5585 0.89016s-1.04 0.62162-1.04 0.83785c0 0.21622-0.349 1.1531-0.77555 2.0819s-0.8754 2.2648-0.99743 2.9688c-0.42255 2.4376-0.52918 24.197-0.12338 25.177 0.2838 0.68517 0.28463 1.0115 3e-3 1.3503-0.39347 0.4741-0.25504 0.7786 1.6836 3.7032 0.70866 1.0691 0.81718 1.4316 0.48927 1.6342-0.23176 0.14323-0.30971 0.37208-0.17324 0.50855 0.13647 0.13648 0.3673 0.0553 0.51296-0.18037 0.19527-0.31595 0.94717 0.25384 2.8626 2.1693 1.4288 1.4288 2.8053 2.5978 3.0589 2.5978 0.25362 0 0.55011 0.144 0.65889 0.32 0.10877 0.176 0.61126 0.32 1.1166 0.32 0.70926 0 0.94218 0.16424 1.0211 0.72 0.0647 0.45563 0.3594 0.7566 0.80258 0.81968 0.43629 0.0621 0.7379 0.36371 0.8 0.8 0.0855 0.6008 0.33188 0.71384 1.7337 0.79545 1.332 0.0776 1.8487 0.29182 2.796 1.1595 0.63914 0.58543 1.6318 1.2544 2.206 1.4867s1.116 0.5222 1.204 0.6443c0.21348 0.29622 2.129 1.4215 3.52 2.0678 0.616 0.28621 1.37 0.65228 1.6757 0.81348 0.30561 0.1612 0.80961 0.29435 1.12 0.29587 0.31038 1e-3 1.0947 0.50553 1.743 1.12 0.64824 0.61448 1.4062 1.1172 1.6843 1.1172 0.4571 0 0.96676 0.21105 2.417 1.0009 0.264 0.14378 0.984 0.4935 1.6 0.77716 0.616 0.28367 1.37 0.64765 1.6757 0.80885 0.30561 0.1612 1.4216 0.2931 2.48 0.2931 1.6915 0 1.9243 0.0751 1.9243 0.62111 0 0.34162 0.144 0.71011 0.32 0.81889 0.176 0.10877 0.32 0.47727 0.32 0.81888 0 0.68609 0.81215 0.85408 1.069 0.22112 0.11035-0.27196 0.24693-0.2925 0.42667-0.0642 0.4917 0.62461 6.1381 3.1413 8.0138 3.5719 0.3902 0.0896 1.1108 0.54298 1.6014 1.0076 1.5016 1.4222 2.6963 2.0862 2.9665 1.649 0.18166-0.29394 0.39598-0.28387 0.91974 0.0432 0.37559 0.23456 0.68289 0.53583 0.68289 0.66949 0 0.13367 0.30177 0.24303 0.6706 0.24303s1.1121 0.31435 1.6516 0.69857c1.2673 0.90239 2.8538 1.1819 8.7178 1.5358 5.2104 0.31445 7.2 0.58671 7.2 0.98528 0 0.14073-0.324 0.30189-0.72 0.35813-0.46271 0.0657-0.75654 0.35955-0.82226 0.82226-0.0562 0.396-0.21229 0.72-0.34677 0.72s-0.65069 0.828-1.1471 1.84c-1.5928 3.2469-1.5848 3.2187-1.1395 4.0508 0.25848 0.48297 0.3355 1.2297 0.20628 2-0.68483 4.0822-0.88271 8.8872-1.039 25.229-0.19069 19.939 0.0501 25.066 1.2488 26.59 0.8081 1.0273 2.8373 2.0504 4.0668 2.0504 0.53501 0 0.97275 0.144 0.97275 0.32 0 0.4621 0.88164 0.39436 1.0413-0.08 0.10169-0.30214 0.24522-0.31095 0.58667-0.036 0.24862 0.20021 1.1 0.45564 1.892 0.56763 3.3672 0.47614 3.84 0.59531 3.84 0.96791 0 0.91034-2.0908 1.4182-7.36 1.788-2.024 0.14201-5.264 0.44169-7.2 0.66596-4.3277 0.50132-4.8038 0.50143-8 2e-3 -2.4304-0.37981-6.3735-0.8319-10.524-1.2066-1.0361-0.0935-2.1881-0.0266-2.56 0.14866-2.5411 1.1978-3.9844 1.7425-4.9762 1.8779-1.0845 0.14808-2.065 0.47594-3.2956 1.102-0.30561 0.15547-0.99415 0.28267-1.5301 0.28267s-1.8699 0.30289-2.9644 0.67309c-1.9989 0.67615-4.1862 1.1132-7.7499 1.5485-1.056 0.12899-2.1817 0.34904-2.5016 0.489-0.34661 0.15167-0.89608 0.0862-1.36-0.16211-0.58014-0.31048-0.96181-0.32847-1.4984-0.0707-1.3301 0.63905-11.253 1.4365-14.32 1.1509zm-15.04-28.909c0-0.176-0.144-0.32-0.32-0.32s-0.32 0.144-0.32 0.32 0.144 0.32 0.32 0.32 0.32-0.144 0.32-0.32zm-34.57-10.8c-0.01421-0.33514-0.81684-1.36-1.0651-1.36-0.34103 0-0.22984 0.63848 0.19528 1.1213 0.43647 0.49575 0.88595 0.61908 0.86982 0.23867zm190.65 37.074c-0.7184-0.72844-0.43119-0.99422 1.0744-0.99422 0.66428 0 1.3026-0.15336 1.4184-0.34079 0.11585-0.18744 0.59234-0.31618 1.0589-0.28609 1.8931 0.12206 2.6083-0.017 2.6083-0.50709 0-0.27168 0.36-0.88221 0.8-1.3567s0.8032-1.0082 0.80711-1.186c4e-3 -0.1778 0.28871-0.68327 0.63289-1.1233 0.61386-0.78478 0.6259-1.6174 0.63288-43.76 7e-3 -42.233-3e-3 -42.96-0.61063-42.96-0.39699 0-0.65428-0.25729-0.72-0.72-0.0647-0.45563-0.3594-0.7566-0.80258-0.81968-0.43629-0.0621-0.7379-0.36371-0.8-0.8-0.0755-0.53022-0.35228-0.72468-1.1397-0.80059-0.572-0.0551-1.04-0.27891-1.04-0.49723 0-0.46499 1.9643-2.4425 2.4262-2.4425 0.17364 0 1.0934-0.78751 2.044-1.75 1.3575-1.3745 1.8215-1.6727 2.1626-1.3896 0.32271 0.26782 0.52955 0.26526 0.80478-0.01 0.20374-0.20374 0.63159-0.37044 0.95078-0.37044 0.57826 0 1.5797-0.46923 2.4917-1.1675 0.92105-0.70523 2.903-1.7125 3.3697-1.7125 0.53548 0 0.63005-0.50348 0.15027-0.8-0.76869-0.47507-0.19149-0.8 1.4211-0.8 0.95761 0 1.8301-0.144 1.9389-0.32 0.10877-0.176 0.52417-0.32 0.9231-0.32 0.39894 0 1.0633-0.35979 1.4764-0.79952 0.7039-0.74927 0.78786-0.76627 1.3358-0.27041 0.54525 0.49345 0.6332 0.48803 1.3047-0.0805 0.396-0.33527 0.8236-0.75359 0.95023-0.92959 0.1498-0.20821 0.45573-0.18026 0.87566 0.08 1.0018 0.62087 1.9341 0.50518 1.9341-0.24 0-0.48762 0.21333-0.64 0.896-0.64 0.4928 0 1.0328-0.12562 1.2-0.27914 0.42399-0.38932 6.7848-0.74787 7.003-0.39475 0.22412 0.36264-0.56829 0.67389-1.7156 0.67389-0.48633 0-1.1449 0.288-1.4634 0.64-0.31856 0.352-0.90838 0.64-1.3107 0.64-0.40234 0-0.82052 0.144-0.92929 0.32-0.10878 0.176-0.4818 0.32-0.82893 0.32-0.34714 0-0.71405 0.216-0.81535 0.48-0.10131 0.264-0.56479 0.48128-1.03 0.48284-0.59355 2e-3 -1.3706 0.5231-2.6058 1.7474-0.968 0.95952-2.012 1.7502-2.32 1.7572-0.34543 8e-3 -0.56 0.26166-0.56 0.66262 0 0.35752-0.252 0.73941-0.56 0.84864-1.0416 0.36939-1.68 1.1563-1.68 2.0709 0 0.68978-0.15146 0.91041-0.62499 0.91041-0.99409 0-2.0801 2.9792-2.3914 6.56-0.0918 1.056-0.39798 3.288-0.68041 4.96-0.49985 2.9592-0.92515 9.641-1.3088 20.563-0.14351 4.0855-0.0919 5.4789 0.21685 5.8509 0.32317 0.3894 0.32515 0.63787 0.01 1.2271-0.29428 0.54987-0.34437 2.2047-0.19583 6.4691 0.10978 3.1516 0.20402 6.7742 0.20942 8.0502 5e-3 1.276 0.0113 2.716 0.0132 3.2 2e-3 0.484-0.0186 1.96-0.0456 3.28-0.1273 6.2408-0.0624 14.454 0.15592 19.743 0.23148 5.6072 0.26561 5.8265 0.9211 5.92 0.62444 0.0891 0.68849 0.3218 0.77491 2.8153 0.0518 1.495 0.23181 2.8558 0.4 3.024 0.16819 0.16819 0.3058 0.51248 0.3058 0.7651s0.35707 0.79024 0.7935 1.1947c0.91408 0.84715 2.0865 2.8182 2.0865 3.5077 0 0.25865 0.2795 0.47027 0.62111 0.47027s0.71011 0.144 0.81889 0.32c0.10877 0.176 0.45964 0.32 0.7797 0.32s0.7612 0.216 0.9803 0.48 0.74073 0.48 1.1592 0.48 0.76082 0.144 0.76082 0.32c0 0.2089-5.0273 0.31339-14.48 0.30098-13.427-0.0176-14.521-0.0603-15.04-0.58676zm14.021-0.2468c1.1764-0.16125 1.3997-0.27171 0.92466-0.45751-0.80374-0.31435-4.5435-0.35023-5.5862-0.0536-0.76021 0.21626-0.7443 0.23783 0.32 0.43351 1.6281 0.29934 2.5974 0.31667 4.3416 0.0776zm-49.837-0.10377c-0.99832-0.092-1.9211-0.27318-2.0506-0.40267-0.12948-0.12949-0.43478-0.07-0.67843 0.13223-0.3338 0.27703-0.53432 0.27635-0.81344-3e-3 -0.20375-0.20375-0.76514-0.37044-1.2476-0.37044-0.48241 0-0.96611-0.144-1.0749-0.32-0.10878-0.176-1.2693-0.32-2.5789-0.32-2.1964 0-2.8987-0.28232-2.0332-0.81724 0.24577-0.15189 0.24799-0.31489 8e-3 -0.55532-0.24043-0.24043-0.51693-0.18049-0.942 0.20419-0.53685 0.48585-0.64532 0.49193-1.0067 0.0564-0.22279-0.26844-0.60344-0.48807-0.84588-0.48807-0.24245 0-0.44082-0.288-0.44082-0.64 0-0.4063-0.21334-0.64-0.58422-0.64-0.32132 0-0.92073-0.3582-1.332-0.79601-0.56698-0.60352-0.85011-0.7111-1.1709-0.44489-0.3262 0.27073-0.79051-0.0301-2.028-1.314-0.8827-0.91582-1.6049-1.8676-1.6049-2.1151s-0.18007-0.44998-0.40014-0.44998c-0.22008 0-1.03-0.57571-1.7997-1.2794-1.0899-0.99627-1.3206-1.3745-1.0426-1.7094 0.39694-0.47829 0.17189-0.85121-0.51369-0.85121-0.70163 0-1.3638-0.83428-1.3638-1.7183 0-0.44218-0.144-0.89297-0.32-1.0017-0.176-0.10878-0.32-0.48491-0.32-0.83587 0-0.35095-0.36-1.1679-0.8-1.8154s-0.8-1.4751-0.8-1.839c0-0.36394-0.13004-0.79851-0.28898-0.96571-0.75865-0.7981-1.2197-11.139-0.66263-14.862 0.22391-1.4968 0.52962-2.8583 0.67936-3.0255s0.27225-0.6821 0.27225-1.1442c0-0.48249 0.34061-1.1602 0.8-1.5918 0.44-0.41336 0.8-1.006 0.8-1.3169 0-0.31093 0.144-0.65433 0.32-0.7631 0.176-0.10878 0.32-0.47923 0.32-0.82323 0-1.1295 1.6626-3.4968 2.4558-3.4968 0.23332 0 0.42422-0.19345 0.42422-0.42988 0-0.23644 1.368-1.7785 3.04-3.4268 1.672-1.6483 3.04-3.2549 3.04-3.5701 0-0.41175 0.24782-0.57337 0.88-0.57391 0.49678-4.3e-4 1.3295-0.38498 1.9122-0.88306 2.1448-1.8332 4.0408-2.4376 9.3678-2.9863 6.685-0.68857 15.663-0.30696 16.784 0.71338 0.1672 0.15222 0.6352 0.27677 1.04 0.27677s0.736 0.144 0.736 0.32 0.324 0.32479 0.72 0.33064c0.88372 0.0131 2.16 1.0298 2.16 1.7206 0 0.34963 0.2943 0.50871 0.94111 0.50871 0.51761 0 1.0301 0.144 1.1389 0.32 0.10877 0.176 0.40527 0.32 0.65888 0.32 0.60486 0 1.7411 1.1486 1.7411 1.76 0 0.264 0.18148 0.48 0.40329 0.48 0.49781 0 3.1167 2.5034 3.1167 2.9793 0 0.53909 1.6621 2.1407 2.2216 2.1407 0.52116 0 1.2217 1.5847 1.5208 3.44 0.0922 0.572 0.29589 1.04 0.45264 1.04 0.15674 0 0.28499 0.3312 0.28499 0.736s0.13373 0.8728 0.29718 1.04 0.34345 0.808 0.4 1.424c0.0785 0.85504 0.26264 1.1428 0.77839 1.2164 0.58402 0.0834 0.71413 0.40864 0.96 2.4 0.15644 1.267 0.27881 4.1036 0.27195 6.3036-0.0119 3.8284-0.0565 4.0927-1.04 6.1608-0.56514 1.1885-1.0275 2.4504-1.0275 2.8043s-0.12749 0.89354-0.2833 1.1992c-0.15582 0.30561-0.69582 1.4197-1.2 2.4757-0.50419 1.056-1.0514 2.017-1.2161 2.1356-0.17513 0.12611-0.10871 0.44659 0.16 0.77204 0.35396 0.42869 0.3676 0.58733 0.0594 0.69105-0.22 0.074-0.4 0.41063-0.4 0.74796 0 0.33734-0.216 0.61334-0.48 0.61334-0.58719 0-1.76 1.1268-1.76 1.691 0 0.22606-0.46789 0.68739-1.0397 1.0252-1.1486 0.67848-2.4774 1.9132-2.4854 2.3092-9e-3 0.44408-1.8222 2.3346-2.2392 2.3346-0.22004 0-0.90915 0.53978-1.5314 1.1995-0.69386 0.7357-1.1828 1.045-1.2644 0.8-0.21614-0.64694-1.0402-0.45634-1.0402 0.24076 0 0.352-0.19837 0.64-0.44082 0.64s-0.62141 0.21759-0.84213 0.48355c-0.35737 0.4306-0.44139 0.42873-0.76737-0.0171-0.32236-0.44086-0.45768-0.40309-1.1336 0.31645-0.46432 0.49424-1.1174 0.81707-1.6529 0.81707-0.48693 0-0.97433 0.144-1.0831 0.32-0.10878 0.176-0.74379 0.32-1.4111 0.32s-1.6308 0.13326-2.1411 0.29614c-1.2635 0.40333-3.7555 0.54904-5.9429 0.34751zm-1.2403-3.2683c0.48398-0.30224 0.78212-0.29568 1.3919 0.0306 0.53287 0.28518 1.4162 0.35335 2.8197 0.2176 1.1241-0.10872 3.0518-0.27773 4.2838-0.37556 1.232-0.0978 2.3768-0.31067 2.544-0.47296s0.5992-0.29552 0.96-0.29607c0.70327-1e-3 4.016-3.0224 4.016-3.6627 0-0.21161 0.36-0.72295 0.8-1.1363s0.8-1.0145 0.8-1.3358c0-0.35884 0.23251-0.58422 0.60269-0.58422 0.361 0 0.67131-0.28875 0.77378-0.72 0.0941-0.396 0.42714-1.368 0.7401-2.16 0.63028-1.595 0.92021-4.4818 1.382-13.76 0.1708-3.432 0.38794-6.6462 0.48254-7.1426 0.10637-0.55825-0.0709-1.4053-0.46453-2.2201-0.3501-0.7246-0.63653-1.7139-0.63653-2.1985 0-0.48456-0.144-0.97001-0.32-1.0788-0.45305-0.28-0.39764-1.3547 0.08-1.5516 0.27004-0.11133 0.12338-0.41891-0.45139-0.9467-0.74876-0.68755-0.79473-0.83845-0.38137-1.2518 0.41337-0.41336 0.40524-0.62069-0.0674-1.72-0.90229-2.0984-0.9713-2.1964-1.8493-2.6274-0.46777-0.22961-0.85368-0.58961-0.8576-0.8-4e-3 -0.2104-0.28871-0.74254-0.63288-1.1825-0.34418-0.44-0.62897-1.1213-0.63289-1.5139-5e-3 -0.49157-0.25626-0.77643-0.80711-0.91469-0.50062-0.12564-0.8-0.42731-0.8-0.80609 0-0.39198-0.22556-0.60531-0.64-0.60531-0.352 0-0.64-0.144-0.64-0.32s0.144-0.32 0.32-0.32 0.32-0.216 0.32-0.48c0-0.64501-0.52121-0.61114-0.77505 0.0504-0.1812 0.47218-0.27272 0.4561-0.83424-0.14662-0.34689-0.37235-0.63071-0.89901-0.63071-1.1704s-0.26656-0.49338-0.59234-0.49338c-0.32579 0-1.2694-0.36-2.0969-0.8-0.82753-0.44-1.7149-0.8-1.972-0.8-0.25707 0-0.74766-0.17502-1.0902-0.38894-0.48878-0.30525-0.85422-0.30525-1.6984 0-1.3473 0.4872-3.8257 0.50543-4.2995 0.0316-0.2631-0.2631-0.54904-0.17871-1.0843 0.32-0.39986 0.37252-1.0998 0.67732-1.5555 0.67732s-1.1401 0.21826-1.5209 0.48503c-0.61668 0.43194-0.72204 0.43223-0.96243 3e-3 -0.21397-0.38234-0.73034-0.0184-2.4901 1.755-1.2211 1.2305-2.476 2.2373-2.7888 2.2373-0.34289 0-0.56858 0.23849-0.56858 0.60082 0 0.33045-0.216 0.78008-0.48 0.99918s-0.48 0.73223-0.48 1.1403c0 0.40807-0.144 0.83093-0.32 0.93971-0.176 0.10877-0.32 0.47727-0.32 0.81888 0 0.39608-0.21948 0.62112-0.60577 0.62112-0.74866 0-0.99423 0.60033-0.99423 2.4305 0 0.78-0.12997 1.6682-0.28881 1.9738-0.84088 1.6178-1.0934 3.2765-0.68644 4.5095 0.30435 0.92217 0.31728 1.4018 0.0512 1.899-0.19578 0.36583-0.35597 1.9638-0.35597 3.5511s-0.16137 3.2401-0.35859 3.673c-0.30156 0.66186-0.25067 0.90285 0.32 1.5154 0.73481 0.78873 0.86477 1.4149 0.35859 1.7277-0.39642 0.24499-0.42404 1.9779-0.0354 2.2182 0.15656 0.0968 0.36055 0.64525 0.45333 1.2189 0.31411 1.9421 0.8864 4.2403 1.195 4.7986 0.16889 0.30561 0.30707 0.77361 0.30707 1.04 0 0.26638 0.144 0.48434 0.32 0.48434s0.32 0.2795 0.32 0.62111 0.144 0.71011 0.32 0.81889c0.176 0.10877 0.32 0.60949 0.32 1.1127 0 1.3114 0.30518 1.9273 0.95505 1.9273 0.8624 0 1.4544 0.85024 0.98545 1.4153-0.30634 0.36912-0.23804 0.47512 0.36082 0.56 0.57236 0.0811 0.76125 0.33887 0.83895 1.1447 0.0753 0.7808 0.25473 1.04 0.72 1.04 0.34085 0 0.61973 0.20004 0.61973 0.44455 0 0.69009 1.2874 2.0366 1.4872 1.5554 0.25617-0.6169 0.75277-0.47326 0.75277 0.21774 0 0.39699 0.25729 0.65429 0.72 0.72 0.4627 0.0657 0.75654 0.35955 0.82225 0.82226 0.0737 0.51886 0.31737 0.72 0.87227 0.72 0.4235 0 1.2415 0.28746 1.8177 0.6388 1.2406 0.75636 1.0702 0.73251 1.8323 0.25655zm15.375-50.495c0-0.176-0.144-0.32-0.32-0.32s-0.32 0.144-0.32 0.32 0.144 0.32 0.32 0.32 0.32-0.144 0.32-0.32zm81.12 53.683c-0.352-0.20752-1.36-0.48729-2.24-0.62171s-2.176-0.33148-2.88-0.43791c-1.5826-0.23926-2.9797-0.85527-3.9066-1.7225-0.38864-0.36361-0.82837-0.66111-0.97717-0.66111-0.14881 0-1.0188-0.37288-1.9334-0.82863-1.1344-0.5653-1.6628-1.0229-1.6628-1.44 0-0.39314-0.22309-0.61137-0.62499-0.61137-0.3997 0-0.81656-0.40372-1.1565-1.12-0.29989-0.63197-0.76838-1.12-1.0752-1.12-0.5663 0-2.2621-1.5702-2.2652-2.0975-9.9e-4 -0.16637-0.64899-0.98595-1.44-1.8213-0.79102-0.83534-1.4382-1.7333-1.4382-1.9954s-0.504-1.4266-1.12-2.5878c-0.616-1.1612-1.1251-2.4232-1.1313-2.8046-6e-3 -0.38138-0.21714-1.0534-0.46866-1.4934-0.25153-0.44-0.46243-1.2595-0.46866-1.8211-6e-3 -0.56161-0.15534-1.1101-0.33134-1.2189-0.36588-0.22612-0.45299-10.8-0.092-11.161 0.4676-0.4676 1.3714-3.2744 1.3717-4.2597 1.4e-4 -0.56161 0.14426-1.1101 0.32026-1.2189 0.176-0.10878 0.32-0.47923 0.32-0.82323 0-0.56918 0.24725-1.1891 1.0118-2.5368 0.14976-0.264 0.37211-0.696 0.49411-0.96 0.12199-0.264 0.48107-0.75915 0.79796-1.1003s0.57616-0.76633 0.57616-0.94477c0-0.17843 0.44886-0.78754 0.99748-1.3536 0.54861-0.56603 1.1606-1.3538 1.36-1.7507 0.19938-0.39684 0.79452-0.95879 1.3225-1.2488s1.1478-0.91306 1.3775-1.3846c0.24001-0.4929 0.68207-0.8573 1.04-0.8573 0.40128 0 0.62254-0.2191 0.62254-0.61647 0-0.42952 0.53372-0.87759 1.76-1.4776 0.968-0.4736 1.76-0.95544 1.76-1.0708 0-0.2196 1.0024-0.74919 3.68-1.9441 0.88-0.39273 2.032-0.90911 2.56-1.1475 2.6311-1.188 16.769-1.1275 18.612 0.0796 0.91146 0.59721 2.15 0.42444 2.2918-0.31972 0.12621-0.66199-2.826-3.7435-3.5865-3.7435-0.26351 0-0.56247-0.13488-0.66436-0.29974-0.24322-0.39353-2.0714-1.3003-2.6217-1.3003-0.23696 0-0.43083-0.144-0.43083-0.32s-0.288-0.32-0.64-0.32-0.64-0.144-0.64-0.32-0.29252-0.32-0.65005-0.32c-0.35752 0-0.73293-0.216-0.83423-0.48-0.12453-0.3245-0.63349-0.48-1.5711-0.48-0.76278 0-1.4759-0.144-1.5846-0.32-0.10878-0.176-1.1253-0.32-2.2589-0.32-1.1607 0-2.0611-0.13979-2.0611-0.32 0-0.18667 1.0667-0.32 2.56-0.32 1.4933 0 2.56 0.13333 2.56 0.32 0 0.176 0.504 0.32 1.12 0.32s1.12 0.144 1.12 0.32 0.4235 0.32 0.94111 0.32 1.0245 0.13488 1.1264 0.29973c0.24322 0.39354 2.0714 1.3003 2.6217 1.3003 0.23696 0 0.43084 0.144 0.43084 0.32s0.21886 0.32 0.48635 0.32c0.54367 0 2.8664 1.3904 3.1856 1.907 0.11318 0.18313 0.42856 0.33297 0.70085 0.33297 0.27228 0 0.77823 0.36 1.1243 0.8 0.73043 0.92859 1.2228 1.0317 1.2228 0.256 0-0.448 0.0706-0.46918 0.4-0.12 0.32 0.3392 0.32 0.45333 0 0.57066-0.62118 0.22777-0.47107 0.73334 0.21774 0.73334 0.39602 0 0.65445 0.25725 0.72 0.71673 0.0571 0.39984 0.37175 0.76814 0.71178 0.833 0.77989 0.14877 8.1905 7.5806 8.1905 8.214 0 0.26197 0.12132 0.47631 0.2696 0.47631 0.14829 0 0.54104 0.504 0.87277 1.12 0.34032 0.63192 0.85035 1.12 1.1704 1.12 0.37639 0 0.56555 0.24224 0.56223 0.72-5e-3 0.73614 1.5714 4.154 2.005 4.3467 0.132 0.0587 0.24 0.37417 0.24 0.70112s0.144 0.68344 0.32 0.79222c0.176 0.10877 0.32 0.54077 0.32 0.96 0 0.41922 0.144 0.85122 0.32 0.96 0.176 0.10877 0.32 0.66575 0.32 1.2377 0 0.57198 0.21142 1.3195 0.46982 1.6611 0.37195 0.49176 0.47194 1.8278 0.48 6.4135 0.01 5.5738-0.02 5.8491-0.78982 7.2969-0.44 0.82753-0.8 1.7765-0.8 2.1088s-0.144 0.69318-0.32 0.80196c-0.176 0.10877-0.32 0.60927-0.32 1.1122 0 0.50294-0.108 0.96244-0.24 1.0211-0.132 0.0587-0.85506 1.3307-1.6068 2.8267-0.75173 1.496-1.9397 3.3628-2.64 4.1484-0.70028 0.78562-1.2732 1.5319-1.2732 1.6585 0 0.31369-3.3897 3.7931-3.6953 3.7931-0.13438 0-0.71631 0.36-1.2932 0.8s-1.1755 0.8-1.3303 0.8c-0.15482 0-0.69537 0.432-1.2012 0.96-0.50586 0.528-1.1533 0.96-1.4387 0.96-0.28544 0-0.79849 0.21142-1.1401 0.46982s-0.87316 0.4744-1.1812 0.48c-0.308 6e-3 -0.56 0.15418-0.56 0.33018s-0.63951 0.32-1.4211 0.32-1.5101 0.144-1.6189 0.32c-0.10878 0.176-0.7699 0.32-1.4692 0.32-0.69926 0-1.7884 0.216-2.4202 0.48-1.4326 0.59857-8.571 0.66078-9.5506 0.0832zm10.56-3.3427c2.1712-0.23221 4.5782-1.4328 6.4567-3.2206 0.78596-0.748 1.6347-1.36 1.8862-1.36s0.45489-0.18 0.45214-0.4c-0.0111-0.89045 1.7538-3.76 2.3126-3.76 0.48135 0 0.57244-0.28341 0.57244-1.781 0-0.97957 0.15891-2.078 0.35315-2.4409 0.65586-1.2255 1.6328-9.018 1.617-12.898-0.0142-3.4863-0.43413-7.6764-0.79179-7.9001-0.19351-0.12107-0.31616-0.74975-0.27257-1.3971 0.0437-0.6494-0.14149-1.5138-0.41325-1.9286-0.27089-0.41343-0.49252-1.1888-0.49252-1.7229 0-0.5342-0.144-0.97126-0.32-0.97126s-0.32-0.432-0.32-0.96-0.144-0.96-0.32-0.96-0.32-0.33248-0.32-0.73884-0.21142-1.0184-0.46983-1.36c-0.2584-0.34164-0.4744-0.87316-0.48-1.1812-6e-3 -0.308-0.15417-0.56-0.33017-0.56s-0.32-0.25692-0.32-0.57093c0-0.31402-0.792-1.3531-1.76-2.3091-0.968-0.95598-1.76-1.9951-1.76-2.3091 0-0.33943-0.2369-0.57093-0.58422-0.57093-0.32132 0-0.92243-0.36-1.3358-0.8-0.41336-0.44-1.0145-0.8-1.3358-0.8-0.32133 0-0.58422-0.144-0.58422-0.32s-0.2592-0.32-0.576-0.32-0.74337-0.16737-0.94793-0.37192c-0.50355-0.50356-3.6154-1.0155-6.1561-1.0127-2.5888 3e-3 -6.3602 0.57683-6.8216 1.0382-0.19049 0.1905-0.57731 0.34636-0.85958 0.34636-0.28228 0-1.0017 0.504-1.5988 1.12s-1.3453 1.12-1.6628 1.12c-0.34773 0-0.57722 0.23473-0.57722 0.5904 0 0.32472-0.288 0.85104-0.64 1.1696-0.352 0.31855-0.64125 0.73687-0.64278 0.92959-2e-3 0.19273-0.50553 0.8808-1.12 1.529s-1.1172 1.3958-1.1172 1.6611-0.144 0.57147-0.32 0.68025c-0.176 0.10877-0.32 0.55874-0.32 0.99992s-0.17383 1.1167-0.38629 1.5011c-0.58301 1.0549-1.589 8.9844-1.5907 12.539-2e-3 4.5556 0.96217 11.54 1.762 12.761 0.63832 0.97421 1.495 1.1107 1.495 0.23821 0-0.33045 0.216-0.78008 0.48-0.99918s0.48-0.5791 0.48-0.8 0.231-0.59335 0.51333-0.82767c0.28234-0.23432 0.63591-0.74842 0.78572-1.1424 0.14981-0.39402 0.67481-0.97462 1.1667-1.2902 0.49186-0.31559 1.2543-0.90242 1.6943-1.3041 1.5499-1.4148 5.0446-2.6356 7.5446-2.6356 1.2693 0 3.6228 0.57927 4.1194 1.0139 0.1672 0.14633 0.54779 0.26606 0.84576 0.26606s0.62465 0.216 0.72596 0.48c0.1013 0.264 0.42483 0.48 0.71896 0.48 0.6573 0 1.3814 0.90444 1.3951 1.7425 8e-3 0.49866-0.21221 0.37974-1.1075-0.59765l-1.1176-1.2202-3.3975 9e-3c-2.0141 5e-3 -3.5395 0.15081-3.7464 0.35765-0.1919 0.19189-0.6081 0.3489-0.9249 0.3489s-0.576 0.144-0.576 0.32-0.21104 0.32-0.46897 0.32c-0.50981 0-2.411 1.721-2.411 2.1825 0 0.15623-0.37683 0.69065-0.83739 1.1876-1.6678 1.7996-2.0426 2.8556-2.0426 5.755 0 2.6759 0.53548 5.5949 1.0264 5.5949 0.13949 0 0.25363 0.20495 0.25363 0.45545 0 0.25049 0.36 0.88328 0.8 1.4062s0.8 1.0935 0.8 1.2681c0 0.52307 2.1348 2.4322 3.4305 3.0679 0.66524 0.32636 1.4596 0.72142 1.7652 0.8779 0.30562 0.15649 1.0976 0.2867 1.76 0.28935 0.66239 3e-3 1.7693 0.20145 2.4597 0.44178 0.91956 0.32007 1.5188 0.35055 2.24 0.11392 0.54154-0.17768 1.5606-0.38465 2.2646-0.45995zm-19.84-1.0606c0.10877-0.176-0.0352-0.32-0.32-0.32-0.28478 0-0.42878 0.144-0.32 0.32 0.10877 0.176 0.25277 0.32 0.32 0.32 0.0672 0 0.21122-0.144 0.32-0.32z" fill="#471c50" style="paint-order:stroke fill markers"/></g></svg>